<svg xmlns="http://www.w3.org/2000/svg" viewBox="0 0 848.42 249.24"><defs><style>.cls-1,.cls-2{fill:#e42320;}.cls-2{font-size:81.62px;font-family:MyriadPro-Regular, Myriad Pro;}.cls-3{letter-spacing:-0.03em;}</style></defs><title>Logo_webshop</title><g id="Layer_1" data-name="Layer 1"><path class="cls-1" d="M1.59,73S8.8,84.41,9.38,85.35,16.9,97.16,16.9,97.16,39,93.72,39.18,93.94s1.75,22.69,1.88,26.31.76,24.35.54,24.71a129,129,0,0,1-11.81,6.44c-3.4,1.56-5.46,2.37-14.23,4.3L.79,158.92s8.64,6.66,11.28,8.59,8.86,5.64,8.86,5.64l23.09.27s.35,10.33.8,16.37c.18,3.67.81,12.4,1.08,15.58s1.61,12.08,1.61,12.08,5.77,4.52,6.71,5.37,8.59,8.05,8.59,8.05-3.49-16-4-24.7S58,189.39,58,186a107.19,107.19,0,0,1,1.07-15.58c.05-.49.49-2.64.81-2.68s8.5-3.63,11.54-5.37,5.06-3.4,7.52-5.1,4.16-3.05,6.45-4.84,4.6-3.71,4.83-3.76-4-13.29-4-12.62-7.56,2-8.32,2.15-7.25,2.06-8.59,2.15a60.14,60.14,0,0,1-7,0c-1.92-.18-.58-8.37-.26-16.91s.53-18.26.53-18.26.45-9.35.54-10.47a12.77,12.77,0,0,1,1.61-4.84c.72-.8.23-.71,7.52-2.68A136.64,136.64,0,0,1,92.08,84c2.46-.23,18.26-1.08,20.94-1.35s23.14-1.2,25.51-1.34,7.42-.18,7.25-1.34a20,20,0,0,1-.27-4.83c.22-.81,3.49-4.39,3.49-5.37s-3.85-3-6.18-4.3-9.08-3.13-13.69-3.76-14.46-1.12-21.48-1.34-16.83-.4-19.87.27c-2.15.31-28.46,2.41-28.46,2.41s.36-5.9-.27-6.44S42.23,58.32,41.6,58.5a5.72,5.72,0,0,1-2.15,0,12.82,12.82,0,0,1-1.88-1.07s.36,5.45.27,5.63,0,1.61-1.07,1.35-12.09,1.88-17.72,3.22S1.59,73,1.59,73" transform="translate(-0.79 -10.9)"/><path class="cls-1" d="M1.59,73S8.8,84.41,9.38,85.35,16.9,97.16,16.9,97.16,39,93.72,39.18,93.94s1.75,22.69,1.88,26.31.76,24.35.54,24.71a129,129,0,0,1-11.81,6.44c-3.4,1.56-5.46,2.37-14.23,4.3L.79,158.92s8.64,6.66,11.28,8.59,8.86,5.64,8.86,5.64l23.09.27s.35,10.33.8,16.37c.18,3.67.81,12.4,1.08,15.58s1.61,12.08,1.61,12.08,5.77,4.52,6.71,5.37,8.59,8.05,8.59,8.05-3.49-16-4-24.7S58,189.39,58,186a107.19,107.19,0,0,1,1.07-15.58c.05-.49.49-2.64.81-2.68s8.5-3.63,11.54-5.37,5.06-3.4,7.52-5.1,4.16-3.05,6.45-4.84,4.6-3.71,4.83-3.76-4-13.29-4-12.62-7.56,2-8.32,2.15-7.25,2.06-8.59,2.15a60.14,60.14,0,0,1-7,0c-1.92-.18-.58-8.37-.26-16.91s.53-18.26.53-18.26.45-9.35.54-10.47a12.77,12.77,0,0,1,1.61-4.84c.72-.8.23-.71,7.52-2.68A136.64,136.64,0,0,1,92.08,84c2.46-.23,18.26-1.08,20.94-1.35s23.14-1.2,25.51-1.34,7.42-.18,7.25-1.34a20,20,0,0,1-.27-4.83c.22-.81,3.49-4.39,3.49-5.37s-3.85-3-6.18-4.3-9.08-3.13-13.69-3.76-14.46-1.12-21.48-1.34-16.83-.4-19.87.27c-2.15.31-28.46,2.41-28.46,2.41s.36-5.9-.27-6.44S42.23,58.32,41.6,58.5a5.72,5.72,0,0,1-2.15,0,12.82,12.82,0,0,1-1.88-1.07s.36,5.45.27,5.63,0,1.61-1.07,1.35-12.09,1.88-17.72,3.22S1.59,73,1.59,73Z" transform="translate(-0.79 -10.9)"/><path class="cls-1" d="M172.63,51.16a13.33,13.33,0,0,0,.35,4.12c.54,1.61,1.26,2.68,3.94,7.52s5.73,10.65,6.8,12.17a5.88,5.88,0,0,0,2.51,2.32c1,.54.27.54,3,1.08s28.29-.81,28.64-.72a1,1,0,0,1,.9.72c.18.54-1.52,18.17-1.79,25.95s-1.25,26.58-1.25,34.55-.27,48.42-.18,49.76,0,.45.53,1.79a12.91,12.91,0,0,0,2.15,3.4c1,1.25,8.77,13.07,9.13,13.6s1.52,2,2,2.51A6,6,0,0,0,230.8,211a2.33,2.33,0,0,0,.36-1.07c.09-.72.45-4.92.54-7.7a22.43,22.43,0,0,0,0-4.29c-.18-1.08-1.44-5.19-1.08-4.3s-1.07-3.13-1.61-4.65-1-2.42-1.07-2.87.09.27,0-2.32.09-25.15,0-27.21-.18-.72.18-1.61,1.25-4.39,1.78-6.63,3.14-16.19,4.3-22.55S236.88,109,238,104s2.6-14.67,2.68-15.93a15.67,15.67,0,0,0,0-4.11,27,27,0,0,0-1.07-2.51,26.53,26.53,0,0,0-1.07-3c-.54-1.08-1.17-1.52-1.26-2.15s-.17-.8,0-1.25a5.22,5.22,0,0,1,.9-1.25c.36-.45.72-.54,1.43-1.08a13.48,13.48,0,0,1,3.58-2c1.25-.36,5.55-1.43,7-1.61s4.83-.36,8.23-.54,4-.18,5.55-.35a18,18,0,0,0,4.84-1.44c1.07-.53,2.41-.89,3-1.25a6.88,6.88,0,0,0,1.43-1.07l.72-.72v-6.8s-2.24-.36-3.58-.54-3.67-.27-5.37-.53-2.78-.45-4.83-.72-4.93-.63-6.63-.9-3.49-.26-6.44-.89-5.64-1.16-7.34-1.61-3.49-.72-3.94-.9a3.17,3.17,0,0,1-1.61-1.07,9.29,9.29,0,0,1-1.07-2.68,30.67,30.67,0,0,0-1.61-3.58c-.81-1.44-1.61-2.33-2.15-3.23s-2.33-3.31-3-4.29-4.48-5.19-4.48-5.19-1-.81-1.43-.54-.63.36-.72.72,0,.18,0,1.25-.53,2.68-.71,4.83-.36,11.82-.36,13.25-.18.89-.18.89a9.59,9.59,0,0,0-2,0c-1.52.09-5.28.63-8.23.72s-3-.36-5.19,0a64.91,64.91,0,0,1-7.16.89c-3,.18-4.84.36-7.16.36s-4.66-.27-6.63-.36a42.07,42.07,0,0,1-6.44-1.07c-1.07-.27-3-.54-3-.54" transform="translate(-0.79 -10.9)"/><path class="cls-1" d="M172.63,51.16a13.33,13.33,0,0,0,.35,4.12c.54,1.61,1.26,2.68,3.94,7.52s5.73,10.65,6.8,12.17a5.88,5.88,0,0,0,2.51,2.32c1,.54.27.54,3,1.08s28.29-.81,28.64-.72a1,1,0,0,1,.9.72c.18.54-1.52,18.17-1.79,25.95s-1.25,26.58-1.25,34.55-.27,48.42-.18,49.76,0,.45.53,1.79a12.91,12.91,0,0,0,2.15,3.4c1,1.25,8.77,13.07,9.13,13.6s1.52,2,2,2.51A6,6,0,0,0,230.8,211a2.33,2.33,0,0,0,.36-1.07c.09-.72.45-4.92.54-7.7a22.43,22.43,0,0,0,0-4.29c-.18-1.08-1.44-5.19-1.08-4.3s-1.07-3.13-1.61-4.65-1-2.42-1.07-2.87.09.27,0-2.32.09-25.15,0-27.21-.18-.72.18-1.61,1.25-4.39,1.78-6.63,3.14-16.19,4.3-22.55S236.88,109,238,104s2.6-14.67,2.68-15.93a15.67,15.67,0,0,0,0-4.11,27,27,0,0,0-1.07-2.51,26.53,26.53,0,0,0-1.07-3c-.54-1.08-1.17-1.52-1.26-2.15s-.17-.8,0-1.25a5.22,5.22,0,0,1,.9-1.25c.36-.45.72-.54,1.43-1.08a13.48,13.48,0,0,1,3.58-2c1.25-.36,5.55-1.43,7-1.61s4.83-.36,8.23-.54,4-.18,5.55-.35a18,18,0,0,0,4.84-1.44c1.07-.53,2.41-.89,3-1.25a6.88,6.88,0,0,0,1.43-1.07l.72-.72v-6.8s-2.24-.36-3.58-.54-3.67-.27-5.37-.53-2.78-.45-4.83-.72-4.93-.63-6.63-.9-3.49-.26-6.44-.89-5.64-1.16-7.34-1.61-3.49-.72-3.94-.9a3.17,3.17,0,0,1-1.61-1.07,9.29,9.29,0,0,1-1.07-2.68,30.67,30.67,0,0,0-1.61-3.58c-.81-1.44-1.61-2.33-2.15-3.23s-2.33-3.31-3-4.29-4.48-5.19-4.48-5.19-1-.81-1.43-.54-.63.36-.72.72,0,.18,0,1.25-.53,2.68-.71,4.83-.36,11.82-.36,13.25-.18.89-.18.89a9.59,9.59,0,0,0-2,0c-1.52.09-5.28.63-8.23.72s-3-.36-5.19,0a64.91,64.91,0,0,1-7.16.89c-3,.18-4.84.36-7.16.36s-4.66-.27-6.63-.36a42.07,42.07,0,0,1-6.44-1.07c-1.07-.27-3-.54-3-.54Z" transform="translate(-0.79 -10.9)"/><path class="cls-1" d="M284.14,11.07c-.54.35-2.86,11.36-3.58,15S277.34,44.63,277,49.37s-1.52,28.1-1.79,31.86-1.16,15.13-1.43,22.91-.45,18.8-.36,29,.9,22.64,1.43,35.44,1.44,30.16,1.79,36.88,2.24,21.92,2.51,24.7S284.59,256,284.86,257a9.46,9.46,0,0,0,1.43,2.86.66.66,0,0,0,1.07,0c.27-.36.45-3.94.36-6.44s-.63-20-.71-25.42.26-14.14.35-22.55-.18-26.94,0-39.38.72-22.56.72-22.56a2,2,0,0,1,1.07,1.08c.45.89.72-16.83.72-16.83s-1.25.63-1.43.36.18-3.31,0-9.67,0-43,0-54.77V36.48c0-3.49-.27-8-.72-12.53a61.56,61.56,0,0,0-1.43-8.23c-.54-2.78-.63-3.85-.72-4.3s-.89-.71-1.43-.36" transform="translate(-0.79 -10.9)"/><path class="cls-1" d="M284.14,11.07c-.54.35-2.86,11.36-3.58,15S277.34,44.63,277,49.37s-1.52,28.1-1.79,31.86-1.16,15.13-1.43,22.91-.45,18.8-.36,29,.9,22.64,1.43,35.44,1.44,30.16,1.79,36.88,2.24,21.92,2.51,24.7S284.59,256,284.86,257a9.46,9.46,0,0,0,1.43,2.86.66.66,0,0,0,1.07,0c.27-.36.45-3.94.36-6.44s-.63-20-.71-25.42.26-14.14.35-22.55-.18-26.94,0-39.38.72-22.56.72-22.56a2,2,0,0,1,1.07,1.08c.45.89.72-16.83.72-16.83s-1.25.63-1.43.36.18-3.31,0-9.67,0-43,0-54.77V36.48c0-3.49-.27-8-.72-12.53a61.56,61.56,0,0,0-1.43-8.23c-.54-2.78-.63-3.85-.72-4.3s-.89-.71-1.43-.36Z" transform="translate(-0.79 -10.9)"/><path class="cls-1" d="M374.18,70a5.85,5.85,0,0,1-.18,1.62c-.2.49-1.12,1.07-2,1.79a33.67,33.67,0,0,0-3.22,3.76c-.72.91-2.4,3.31-3.4,4.83a33.46,33.46,0,0,0-3.05,6.8c-.85,2.51-1.7,6.51-2.14,8.23s-1,5.46-1.08,6.45S359,107,359,109a30.26,30.26,0,0,0,.54,7.15c.54,2.51,1.28,4.66,1.61,5.73s1.21,4.21,1.61,5.73.72,2.46,1.43,4.47a26.9,26.9,0,0,0,3.05,5.55c1.36,2.17,3,4.84,3.94,6.09a21.47,21.47,0,0,0,4.29,4.3c.85.38,2.62,1.29,3.05,2.14a10.93,10.93,0,0,0,2,2.33c.47.47,1.05.47,2,.54a10.78,10.78,0,0,0,2.69-.36,7.55,7.55,0,0,0,3-1.07,33.37,33.37,0,0,0,3.76-3.76,19,19,0,0,0,2.15-2.87,42.33,42.33,0,0,0,2.15-4.47,37.47,37.47,0,0,0,1.61-4.66,28,28,0,0,0,.89-4.83,45.47,45.47,0,0,0,.36-6.62c0-2.17-.36-4.25-.36-4.66s-1-1.34-.89-1.07-.16-.83,0-1.25.49-.43.89-.9,1.25-2.15,2-3.22a15.51,15.51,0,0,0,2-3c.63-1.46.89-3,1.43-4.66a33.47,33.47,0,0,0,1.26-4.47c.22-1.39.6-3,.71-3.76a19.76,19.76,0,0,0,.18-3.22c0-1.79-.54-1.79-.89-3.4A16.13,16.13,0,0,0,403.89,87c-.71-1.61-2.15-2.51-3.58-3.94a43.17,43.17,0,0,0-6.42-4.81c-2.31-1.48-8.34,12.42-6.87,13.36l.58.89c.5.27,1,.14,1.08,1.08a37.5,37.5,0,0,1,0,6.71c-.14,1.79-.36,3.62-.63,5.14s-.45,2-.63,3.58a39.47,39.47,0,0,1-.71,4.66,84.25,84.25,0,0,1-2.73,8.72,19.71,19.71,0,0,1-2.6,2.87c-.71.85-2,2.41-2.21,2.75-.65.92-.56.92-1,.34a4,4,0,0,1-.87-1.88c-.42-1.35-.43-13.79-.25-16.52s0-6,.18-7.78.63-1.57,1.26-1.88.76-.81.89-1.61a36.91,36.91,0,0,1,3.49-6.36,16.19,16.19,0,0,1,1.88-2.37c1-1.07-.18-.18,1,.36.22.27.67.67,1,1,2.64,2,8.81-11.84,7-13.13s-7.79-4.75-8.33-5c-3.23-1.43-8.06-3-6.81-2.68s-1-.51-1.43-.36a16.8,16.8,0,0,1-3-.18" transform="translate(-0.79 -10.9)"/><path class="cls-1" d="M374.18,70a5.85,5.85,0,0,1-.18,1.62c-.2.49-1.12,1.07-2,1.79a33.67,33.67,0,0,0-3.22,3.76c-.72.91-2.4,3.31-3.4,4.83a33.46,33.46,0,0,0-3.05,6.8c-.85,2.51-1.7,6.51-2.14,8.23s-1,5.46-1.08,6.45S359,107,359,109a30.26,30.26,0,0,0,.54,7.15c.54,2.51,1.28,4.66,1.61,5.73s1.21,4.21,1.61,5.73.72,2.46,1.43,4.47a26.9,26.9,0,0,0,3.05,5.55c1.36,2.17,3,4.84,3.94,6.09a21.47,21.47,0,0,0,4.29,4.3c.85.38,2.62,1.29,3.05,2.14a10.93,10.93,0,0,0,2,2.33c.47.47,1.05.47,2,.54a10.78,10.78,0,0,0,2.69-.36,7.55,7.55,0,0,0,3-1.07,33.37,33.37,0,0,0,3.76-3.76,19,19,0,0,0,2.15-2.87,42.33,42.33,0,0,0,2.15-4.47,37.47,37.47,0,0,0,1.61-4.66,28,28,0,0,0,.89-4.83,45.47,45.47,0,0,0,.36-6.62c0-2.17-.36-4.25-.36-4.66s-1-1.34-.89-1.07-.16-.83,0-1.25.49-.43.89-.9,1.25-2.15,2-3.22a15.51,15.51,0,0,0,2-3c.63-1.46.89-3,1.43-4.66a33.47,33.47,0,0,0,1.26-4.47c.22-1.39.6-3,.71-3.76a19.76,19.76,0,0,0,.18-3.22c0-1.79-.54-1.79-.89-3.4A16.13,16.13,0,0,0,403.89,87c-.71-1.61-2.15-2.51-3.58-3.94a43.17,43.17,0,0,0-6.42-4.81c-2.31-1.48-8.34,12.42-6.87,13.36l.58.89c.5.27,1,.14,1.08,1.08a37.5,37.5,0,0,1,0,6.71c-.14,1.79-.36,3.62-.63,5.14s-.45,2-.63,3.58a39.47,39.47,0,0,1-.71,4.66,84.25,84.25,0,0,1-2.73,8.72,19.71,19.71,0,0,1-2.6,2.87c-.71.85-2,2.41-2.21,2.75-.65.92-.56.92-1,.34a4,4,0,0,1-.87-1.88c-.42-1.35-.43-13.79-.25-16.52s0-6,.18-7.78.63-1.57,1.26-1.88.76-.81.89-1.61a36.91,36.91,0,0,1,3.49-6.36,16.19,16.19,0,0,1,1.88-2.37c1-1.07-.18-.18,1,.36.22.27.67.67,1,1,2.64,2,8.81-11.84,7-13.13s-7.79-4.75-8.33-5c-3.23-1.43-8.06-3-6.81-2.68s-1-.51-1.43-.36a16.8,16.8,0,0,1-3-.18Z" transform="translate(-0.79 -10.9)"/><path class="cls-1" d="M448.64,44.54a5.56,5.56,0,0,0,.27-3.49c-.4-1.08-2.35-2.28-3-2.69a46.74,46.74,0,0,0-4-2.68c-1.61-.88-6.18-2-7.52-2.42s-6.51-2.75-8.32-2.95a67.29,67.29,0,0,0-8.33.27,18.6,18.6,0,0,0-5.1,1.61c-1.68.67-6.44,2.21-7.52,2.68s-5.17,2.75-5.9,3.22a6.24,6.24,0,0,0-2.15,2.69,9.93,9.93,0,0,0,.27,2.95,11.48,11.48,0,0,0,1.34,3.76c.94,2,7.18,11.95,9.4,15.57s10.87,17.66,14,23.36,10.4,21.55,12.08,25.24,6.31,19.53,7.25,22a60.49,60.49,0,0,1,2.42,9.66c.2,1.82,0,6.31,0,8.6a53.25,53.25,0,0,1-.81,8.32,111,111,0,0,1-2.68,14,86.13,86.13,0,0,1-5.37,14c-1.08,2.08-4.37,8.13-5.37,9.67a23.7,23.7,0,0,1-3.76,4.29,37.8,37.8,0,0,1-3.76,3c-1.34.94-6.18,4-7.25,4.56a18.19,18.19,0,0,1-7,2.15c-3.36.34-9.13.81-10.74.54a24.5,24.5,0,0,1-4.56-1.61c-.68-.27-5.31-2.15-6.45-2.69a24.93,24.93,0,0,1-4-2.68,16.85,16.85,0,0,1-2.95-3.23c-1.54-2.08-2.35-3.49-3.22-4.83a10.7,10.7,0,0,1-1.61-4c-.27-1.41,0-1.94.53-3.49s3.9-13.09,4.57-14.76a47.4,47.4,0,0,0,1.88-7.79c.13-1.41.07-3.29-.54-3.22a95.63,95.63,0,0,0-9.4,4.29c-2.5,1.35-7.69,6.63-8.86,8.86a47.2,47.2,0,0,0-2.68,6.18,34.6,34.6,0,0,0-1.61,5.91,10.28,10.28,0,0,0,.53,4.29c.54,1.28,1.28,2.42,2.15,4a16,16,0,0,0,2.69,3.49,41,41,0,0,0,4,4.57c1.27,1.07,1.94,1.61,2.41,3a37.45,37.45,0,0,0,2.15,4.83,21.67,21.67,0,0,0,2.95,4.57c1.14,1.47,4.3,5.63,5.64,7.25a33.6,33.6,0,0,0,5.91,5.37,49.41,49.41,0,0,0,7,4,41.28,41.28,0,0,0,8.32,3c2.22.4,14.84.87,16.11.27a13.53,13.53,0,0,1,3.76-1.62c1.54-.26,7-3.49,8.06-4s3.69-1.68,5.1-2.42,3.55-3,4.83-4.3a43.63,43.63,0,0,0,4.3-5.63,50.3,50.3,0,0,0,3.49-6.45,128.89,128.89,0,0,0,5.1-12.89,55.84,55.84,0,0,0,2.68-11.27c.67-5,.47-6.71.81-11.28s.53-9.33.53-12.62-.47-11-.8-15.57-1.95-14.5-2.42-16.65a80.58,80.58,0,0,0-2.41-9.4c-1.68-5.37-2.89-9.33-4.57-14.23a133.49,133.49,0,0,0-6.17-16.11c-3.29-7-5.84-11.61-8.86-16.91s-2.89-5.71-5.1-9.4a39.87,39.87,0,0,0-4.3-5.91c-.67-.87-1.88-2-2.69-3S418.3,57,417.5,56.08a8.57,8.57,0,0,1-1.08-1.34,16.2,16.2,0,0,1,.54-1.88c.33-.94,1.41-1.54,2.15-2.41A7.91,7.91,0,0,1,422.33,48a32.74,32.74,0,0,1,4.83-1.34c1.07-.14,4.1,0,5.1,0s2.55-.14,5.64,0,6.18.46,6.71.53a2.37,2.37,0,0,0,1.61-.27,4.69,4.69,0,0,0,1.35-1.07,3,3,0,0,0,1.07-1.34" transform="translate(-0.79 -10.9)"/><path class="cls-1" d="M448.64,44.54a5.56,5.56,0,0,0,.27-3.49c-.4-1.08-2.35-2.28-3-2.69a46.74,46.74,0,0,0-4-2.68c-1.61-.88-6.18-2-7.52-2.42s-6.51-2.75-8.32-2.95a67.29,67.29,0,0,0-8.33.27,18.6,18.6,0,0,0-5.1,1.61c-1.68.67-6.44,2.21-7.52,2.68s-5.17,2.75-5.9,3.22a6.24,6.24,0,0,0-2.15,2.69,9.93,9.93,0,0,0,.27,2.95,11.48,11.48,0,0,0,1.34,3.76c.94,2,7.18,11.95,9.4,15.57s10.87,17.66,14,23.36,10.4,21.55,12.08,25.24,6.31,19.53,7.25,22a60.49,60.49,0,0,1,2.42,9.66c.2,1.82,0,6.31,0,8.6a53.25,53.25,0,0,1-.81,8.32,111,111,0,0,1-2.68,14,86.13,86.13,0,0,1-5.37,14c-1.08,2.08-4.37,8.13-5.37,9.67a23.7,23.7,0,0,1-3.76,4.29,37.8,37.8,0,0,1-3.76,3c-1.34.94-6.18,4-7.25,4.56a18.19,18.19,0,0,1-7,2.15c-3.36.34-9.13.81-10.74.54a24.5,24.5,0,0,1-4.56-1.61c-.68-.27-5.31-2.15-6.45-2.69a24.93,24.93,0,0,1-4-2.68,16.85,16.85,0,0,1-2.95-3.23c-1.54-2.08-2.35-3.49-3.22-4.83a10.7,10.7,0,0,1-1.61-4c-.27-1.41,0-1.94.53-3.49s3.9-13.09,4.57-14.76a47.4,47.4,0,0,0,1.88-7.79c.13-1.41.07-3.29-.54-3.22a95.63,95.63,0,0,0-9.4,4.29c-2.5,1.35-7.69,6.63-8.86,8.86a47.2,47.2,0,0,0-2.68,6.18,34.6,34.6,0,0,0-1.61,5.91,10.28,10.28,0,0,0,.53,4.29c.54,1.28,1.28,2.42,2.15,4a16,16,0,0,0,2.69,3.49,41,41,0,0,0,4,4.57c1.27,1.07,1.94,1.61,2.41,3a37.45,37.45,0,0,0,2.15,4.83,21.67,21.67,0,0,0,2.95,4.57c1.14,1.47,4.3,5.63,5.64,7.25a33.6,33.6,0,0,0,5.91,5.37,49.41,49.41,0,0,0,7,4,41.28,41.28,0,0,0,8.32,3c2.22.4,14.84.87,16.11.27a13.53,13.53,0,0,1,3.76-1.62c1.54-.26,7-3.49,8.06-4s3.69-1.68,5.1-2.42,3.55-3,4.83-4.3a43.63,43.63,0,0,0,4.3-5.63,50.3,50.3,0,0,0,3.49-6.45,128.89,128.89,0,0,0,5.1-12.89,55.84,55.84,0,0,0,2.68-11.27c.67-5,.47-6.71.81-11.28s.53-9.33.53-12.62-.47-11-.8-15.57-1.95-14.5-2.42-16.65a80.58,80.58,0,0,0-2.41-9.4c-1.68-5.37-2.89-9.33-4.57-14.23a133.49,133.49,0,0,0-6.17-16.11c-3.29-7-5.84-11.61-8.86-16.91s-2.89-5.71-5.1-9.4a39.87,39.87,0,0,0-4.3-5.91c-.67-.87-1.88-2-2.69-3S418.3,57,417.5,56.08a8.57,8.57,0,0,1-1.08-1.34,16.2,16.2,0,0,1,.54-1.88c.33-.94,1.41-1.54,2.15-2.41A7.91,7.91,0,0,1,422.33,48a32.74,32.74,0,0,1,4.83-1.34c1.07-.14,4.1,0,5.1,0s2.55-.14,5.64,0,6.18.46,6.71.53a2.37,2.37,0,0,0,1.61-.27,4.69,4.69,0,0,0,1.35-1.07,3,3,0,0,0,1.07-1.34Z" transform="translate(-0.79 -10.9)"/><path class="cls-1" d="M453.3,88.39s7.58,11.41,7.87,12.17,1.1,5.13,1.43,6.81,1.19,4.63,2,7,2.35,5.46,3,7.16a81.31,81.31,0,0,0,3.76,8c1.1,1.77,4.66,7,5.73,8.42a40.09,40.09,0,0,0,6.45,7,46.52,46.52,0,0,0,14.85,8.59,35,35,0,0,0,7.7,1.61c1.41.2,4.3.47,5.37.54a12.86,12.86,0,0,0,4.83-.9c1.88-.72,4.59-2.24,6.63-3.22a33.67,33.67,0,0,0,7-4.83c2.3-2.06,10.94-9.31,11.45-9.31a3.74,3.74,0,0,0,2-.9c1-.65,5.06-5.63,5.73-6.26s4.65-4.21,5-4.84a3.11,3.11,0,0,0,.18-1.79,8.23,8.23,0,0,0-.54-2.14,4,4,0,0,0-1.07-1.26c-.49-.47-1.19-.71-2.15-1.43a4.83,4.83,0,0,0-2.5-.89c-.68-.09-5.93-.21-8.24-.18s-7.67.22-9,.36-3.49.71-4.29.89a8.27,8.27,0,0,0-1.79.72s-.05,1.74,0,2.68-1,2.37-2.33,3.4a26,26,0,0,1-4.48,2.51c-1,.47-3.37,1.52-4.47,2s-1.19.4-5.37,1.43a22.19,22.19,0,0,1-8.77.72c-1.86-.3-2.15-.79-5.19-2.15a39.58,39.58,0,0,1-9.13-6.09,47.86,47.86,0,0,1-3.22-4.11,36.78,36.78,0,0,1-3.58-5.37A26.51,26.51,0,0,1,476,107.9c-.2-1.41-.16-3.89-.18-4.29s.69-.59,1.07-.9a4.06,4.06,0,0,1,2-.54c1-.11,5.95.12,7.52,0s4.7-.51,8.77-1.25,10.23-2.08,12.35-2.68a53.38,53.38,0,0,0,7.16-2.87c1.68-.82,5.26-2.39,6.63-3.22a29.34,29.34,0,0,0,4.47-4.29c.72-.83,3-3,3.94-4.3a21.29,21.29,0,0,0,2-4.12A12.67,12.67,0,0,0,533,75.51a42.94,42.94,0,0,0,0-6.63,37.46,37.46,0,0,0-1.07-6.8c-.47-1.83-1.34-5.12-1.61-6.26a13.6,13.6,0,0,0-2.33-5.37,10,10,0,0,0-3.4-2.51,30.66,30.66,0,0,0-4.66-2.15,45.78,45.78,0,0,0-5-1.25c-2-.47-8.63-2.15-9.84-2.15s-3.94.18-3.94.18-2.42,0-3.94.18A12.75,12.75,0,0,0,493.21,44c-1.14.54-5.68,2.64-6.8,3.4a44.76,44.76,0,0,0-4.65,3.76c-1,1-3.92,4.39-4.66,5.19a42.43,42.43,0,0,0-3.22,3.94c-1.21,1.7-2.06,3.08-2.69,3.94-2.54,4.49,13.45,12.39,15.33,10.68,1.38-1.18,1.38-1.22,3.17-2.81,3.41-2.41,8.73-4.65,15.9-7.25a16.47,16.47,0,0,1,3.21-.74c1.37-.18,8.07-.79,8.46-.32a2.63,2.63,0,0,1,.71,1.83,11.87,11.87,0,0,1-1.62,4.23A27.23,27.23,0,0,1,512.2,74c-1.62,1.45-4.3,3.89-11.68,7.45a66.58,66.58,0,0,1-8.93,2.75,51.54,51.54,0,0,1-11.74,1.56,3.62,3.62,0,0,1,0-.76,12.77,12.77,0,0,1,2.36-5.94,32.77,32.77,0,0,1,4.12-4c7.67-12.94-12.49-16-15.38-10.49-1.19,2.32-3.25,6.71-4.25,8.61a53.82,53.82,0,0,0-3,7c-.61,1.63-1.37,4.52-1.79,5.73s-.4,2.13-.72,2.51.18.06-.54.35-7.33-.35-7.33-.35" transform="translate(-0.79 -10.9)"/><path class="cls-1" d="M453.3,88.39s7.58,11.41,7.87,12.17,1.1,5.13,1.43,6.81,1.19,4.63,2,7,2.35,5.46,3,7.16a81.31,81.31,0,0,0,3.76,8c1.1,1.77,4.66,7,5.73,8.42a40.09,40.09,0,0,0,6.45,7,46.52,46.52,0,0,0,14.85,8.59,35,35,0,0,0,7.7,1.61c1.41.2,4.3.47,5.37.54a12.86,12.86,0,0,0,4.83-.9c1.88-.72,4.59-2.24,6.63-3.22a33.67,33.67,0,0,0,7-4.83c2.3-2.06,10.94-9.31,11.45-9.31a3.74,3.74,0,0,0,2-.9c1-.65,5.06-5.63,5.73-6.26s4.65-4.21,5-4.84a3.11,3.11,0,0,0,.18-1.79,8.23,8.23,0,0,0-.54-2.14,4,4,0,0,0-1.07-1.26c-.49-.47-1.19-.71-2.15-1.43a4.83,4.83,0,0,0-2.5-.89c-.68-.09-5.93-.21-8.24-.18s-7.67.22-9,.36-3.49.71-4.29.89a8.27,8.27,0,0,0-1.79.72s-.05,1.74,0,2.68-1,2.37-2.33,3.4a26,26,0,0,1-4.48,2.51c-1,.47-3.37,1.52-4.47,2s-1.19.4-5.37,1.43a22.19,22.19,0,0,1-8.77.72c-1.86-.3-2.15-.79-5.19-2.15a39.58,39.58,0,0,1-9.13-6.09,47.86,47.86,0,0,1-3.22-4.11,36.78,36.78,0,0,1-3.58-5.37A26.51,26.51,0,0,1,476,107.9c-.2-1.41-.16-3.89-.18-4.29s.69-.59,1.07-.9a4.06,4.06,0,0,1,2-.54c1-.11,5.95.12,7.52,0s4.7-.51,8.77-1.25,10.23-2.08,12.35-2.68a53.38,53.38,0,0,0,7.16-2.87c1.68-.82,5.26-2.39,6.63-3.22a29.34,29.34,0,0,0,4.47-4.29c.72-.83,3-3,3.94-4.3a21.29,21.29,0,0,0,2-4.12A12.67,12.67,0,0,0,533,75.51a42.94,42.94,0,0,0,0-6.63,37.46,37.46,0,0,0-1.07-6.8c-.47-1.83-1.34-5.12-1.61-6.26a13.6,13.6,0,0,0-2.33-5.37,10,10,0,0,0-3.4-2.51,30.66,30.66,0,0,0-4.66-2.15,45.78,45.78,0,0,0-5-1.25c-2-.47-8.63-2.15-9.84-2.15s-3.94.18-3.94.18-2.42,0-3.94.18A12.75,12.75,0,0,0,493.21,44c-1.14.54-5.68,2.64-6.8,3.4a44.76,44.76,0,0,0-4.65,3.76c-1,1-3.92,4.39-4.66,5.19a42.43,42.43,0,0,0-3.22,3.94c-1.21,1.7-2.06,3.08-2.69,3.94-2.54,4.49,13.45,12.39,15.33,10.68,1.38-1.18,1.38-1.22,3.17-2.81,3.41-2.41,8.73-4.65,15.9-7.25a16.47,16.47,0,0,1,3.21-.74c1.37-.18,8.07-.79,8.46-.32a2.63,2.63,0,0,1,.71,1.83,11.87,11.87,0,0,1-1.62,4.23A27.23,27.23,0,0,1,512.2,74c-1.62,1.45-4.3,3.89-11.68,7.45a66.58,66.58,0,0,1-8.93,2.75,51.54,51.54,0,0,1-11.74,1.56,3.62,3.62,0,0,1,0-.76,12.77,12.77,0,0,1,2.36-5.94,32.77,32.77,0,0,1,4.12-4c7.67-12.94-12.49-16-15.38-10.49-1.19,2.32-3.25,6.71-4.25,8.61a53.82,53.82,0,0,0-3,7c-.61,1.63-1.37,4.52-1.79,5.73s-.4,2.13-.72,2.51.18.06-.54.35-7.33-.35-7.33-.35Z" transform="translate(-0.79 -10.9)"/><path class="cls-1" d="M86.32,136.74c-.24-3.24-.42.79-.15-4.94s.53-7.63,2.37-12.85,1.28-3.56,3.61-7.93,11.18-11.57,11.68-12,1.45-.18,1.11-.28,9.62,4.8,12.11,8.31,7.64,14.21,8.47,16.71a13,13,0,0,0,2.78,4.45l.14,7.23-1.11,11.81L125,158.84a36.35,36.35,0,0,1-5.56,6.53c-2.92,2.51-8.34,4.87-9.45,5.7s-1.11.56-2.36,0c-2.92-1.11-15.43-17.79-17.52-22S87,142.57,87,142.57s12.7-4.11,12.79-2.7.81,4.61,1.11,4.79c.9.91,3.6-3.26,4-4.17s3.66-6.94,4.17-11.26,0-4.85-.56-7.23a19,19,0,0,0-4.15-7c-1.14-1.06-3.53-1.66-3.73-1.36s-.79,25.2-.88,26.05S87,142.57,87,142.57s-.46-2.6-.69-5.83" transform="translate(-0.79 -10.9)"/><path class="cls-1" d="M86.32,136.74c-.24-3.24-.42.79-.15-4.94s.53-7.63,2.37-12.85,1.28-3.56,3.61-7.93,11.18-11.57,11.68-12,1.45-.18,1.11-.28,9.62,4.8,12.11,8.31,7.64,14.21,8.47,16.71a13,13,0,0,0,2.78,4.45l.14,7.23-1.11,11.81L125,158.84a36.35,36.35,0,0,1-5.56,6.53c-2.92,2.51-8.34,4.87-9.45,5.7s-1.11.56-2.36,0c-2.92-1.11-15.43-17.79-17.52-22S87,142.57,87,142.57s12.7-4.11,12.79-2.7.81,4.61,1.11,4.79c.9.91,3.6-3.26,4-4.17s3.66-6.94,4.17-11.26,0-4.85-.56-7.23a19,19,0,0,0-4.15-7c-1.14-1.06-3.53-1.66-3.73-1.36s-.79,25.2-.88,26.05S87,142.57,87,142.57s-.46-2.6-.69-5.83Z" transform="translate(-0.79 -10.9)"/><path class="cls-1" d="M120,129s1.34-1,6-5.24c4.52-4.56,21.26-27.47,29.13-34.36,1.35-1,1.62-.9,2.42-1.62s.36-1.16-.13-1.87-9.18-7.39-9.18-7.39S149,78.37,151,78s1.39-.31,5.91-.94c7-.53,18.21,3,22.82,4.84S201.89,97.43,209,113.14c2.82,6.75,5.41,11.14,5.23,13.29s-6.08,16.38-8.86,20.94A117.8,117.8,0,0,1,202,165.23c-1.39,4.6-5.42,13.82-6,14.36s-4.66,10-5.91,12.35-7.7,8-13.42,9.53a81.31,81.31,0,0,1-13.29,2.82c-3.63.36-11.86.18-16-3.76s-6.44-6-7.65-8.05a47.17,47.17,0,0,0-4.43-6.18c-1.52-1.79-13.69-18.08-15.57-21.07a36.51,36.51,0,0,0-3.65-5.25c-3-3.93,23.6-3.58,23.6-.75a51.66,51.66,0,0,0,1,10c.72,3.36,1.61,6.4,2.42,7.39s2.05,1.88,5,2.14,5.78-.35,10.34-1.87c6.62-1.53,10.47-4.39,14.23-9.54s6.27-8,8.06-12.88,3.66-13.65,4.56-21.62-2.51-17.09-3.36-19.73-2.1-5.87-3.49-7.12a7.27,7.27,0,0,1-2.73-4.56,6,6,0,0,1-.76,2.81c-.4,2.38-6,3.27-9,5.24s-12.17,9.13-16.38,16-5,8.18-7.25,15S139.64,159,139.64,159l-23.73.73L120,129" transform="translate(-0.79 -10.9)"/><path class="cls-1" d="M120,129s1.34-1,6-5.24c4.52-4.56,21.26-27.47,29.13-34.36,1.35-1,1.62-.9,2.42-1.62s.36-1.16-.13-1.87-9.18-7.39-9.18-7.39S149,78.37,151,78s1.39-.31,5.91-.94c7-.53,18.21,3,22.82,4.84S201.89,97.43,209,113.14c2.82,6.75,5.41,11.14,5.23,13.29s-6.08,16.38-8.86,20.94A117.8,117.8,0,0,1,202,165.23c-1.39,4.6-5.42,13.82-6,14.36s-4.66,10-5.91,12.35-7.7,8-13.42,9.53a81.31,81.31,0,0,1-13.29,2.82c-3.63.36-11.86.18-16-3.76s-6.44-6-7.65-8.05a47.17,47.17,0,0,0-4.43-6.18c-1.52-1.79-13.69-18.08-15.57-21.07a36.51,36.51,0,0,0-3.65-5.25c-3-3.93,23.6-3.58,23.6-.75a51.66,51.66,0,0,0,1,10c.72,3.36,1.61,6.4,2.42,7.39s2.05,1.88,5,2.14,5.78-.35,10.34-1.87c6.62-1.53,10.47-4.39,14.23-9.54s6.27-8,8.06-12.88,3.66-13.65,4.56-21.62-2.51-17.09-3.36-19.73-2.1-5.87-3.49-7.12a7.27,7.27,0,0,1-2.73-4.56,6,6,0,0,1-.76,2.81c-.4,2.38-6,3.27-9,5.24s-12.17,9.13-16.38,16-5,8.18-7.25,15S139.64,159,139.64,159l-23.73.73L120,129Z" transform="translate(-0.79 -10.9)"/><path class="cls-1" d="M288.12,126.8l.74.61s.41.77.49-.12.1-7.2.74-9.62,2.41-6.27,3-7.8,3.12-10.3,3.58-11.45,2.16-6.18,4.3-8.59a17,17,0,0,1,5.77-4.47,44.94,44.94,0,0,0,5.68-2.69c.75-.58,1.46-1.7,2.51-2.51a6.1,6.1,0,0,1,3.22-.72l.06,3.33a7.73,7.73,0,0,0,.65,2.55c.45.64,3,2.33,3.66,3s2,2.4,3.58,4.07c1.89,1.49,8.15,4,8.51,4.44s.29.73.61,1.48,2.78,5.5,3.46,8.63,1.76,13.77,2,17.76c.29,2.78.79,13,.62,17.26a43.17,43.17,0,0,1-1.48,8.51c-.14,2.83-.58,7.89-.86,9.5s-3.4,9.41-4.07,11-3.13,7.9-6.05,10.12c-1.83,1.52-4.2,2.81-10.11,2.22-4.3-.49-5.81-.56-9.86-2.52-2.21-1.13-6.07-2.68-8.64-6.36s-8-15.7-8.75-18.25-2.19-9.61-2.71-12.09-2.1-.62-2.1-.62l-.49-7.53s15.41-2.94,15,.61-1.06,7.84-1.22,9.76-.22,8.85-.15,10.49a9.49,9.49,0,0,0,2.24,5,10,10,0,0,0,4.07,1.23c1,.11,4.05-.87,5.55-1.6s4.34-2.35,9.25-9.74,8.2-15,9-18.38.85-12,0-15.41a91.86,91.86,0,0,0-3.46-10c-2.86-4.7-4.68-5.08-5.92-5.55s-.84-.76-2.31-.2-4.59,3.65-4.59,3.65l-5.92,8.76-3.46,10.48s-2.38,8.84-3.1,11.23-15-.5-15-.5l-.25-8.51,2.22-.49" transform="translate(-0.79 -10.9)"/><path class="cls-1" d="M288.12,126.8l.74.61s.41.77.49-.12.1-7.2.74-9.62,2.41-6.27,3-7.8,3.12-10.3,3.58-11.45,2.16-6.18,4.3-8.59a17,17,0,0,1,5.77-4.47,44.94,44.94,0,0,0,5.68-2.69c.75-.58,1.46-1.7,2.51-2.51a6.1,6.1,0,0,1,3.22-.72l.06,3.33a7.73,7.73,0,0,0,.65,2.55c.45.64,3,2.33,3.66,3s2,2.4,3.58,4.07c1.89,1.49,8.15,4,8.51,4.44s.29.73.61,1.48,2.78,5.5,3.46,8.63,1.76,13.77,2,17.76c.29,2.78.79,13,.62,17.26a43.17,43.17,0,0,1-1.48,8.51c-.14,2.83-.58,7.89-.86,9.5s-3.4,9.41-4.07,11-3.13,7.9-6.05,10.12c-1.83,1.52-4.2,2.81-10.11,2.22-4.3-.49-5.81-.56-9.86-2.52-2.21-1.13-6.07-2.68-8.64-6.36s-8-15.7-8.75-18.25-2.19-9.61-2.71-12.09-2.1-.62-2.1-.62l-.49-7.53s15.41-2.94,15,.61-1.06,7.84-1.22,9.76-.22,8.85-.15,10.49a9.49,9.49,0,0,0,2.24,5,10,10,0,0,0,4.07,1.23c1,.11,4.05-.87,5.55-1.6s4.34-2.35,9.25-9.74,8.2-15,9-18.38.85-12,0-15.41a91.86,91.86,0,0,0-3.46-10c-2.86-4.7-4.68-5.08-5.92-5.55s-.84-.76-2.31-.2-4.59,3.65-4.59,3.65l-5.92,8.76-3.46,10.48s-2.38,8.84-3.1,11.23-15-.5-15-.5l-.25-8.51,2.22-.49Z" transform="translate(-0.79 -10.9)"/></g><g id="Layer_2" data-name="Layer 2"><text class="cls-2" transform="translate(523.97 227.47)"><tspan class="cls-3">W</tspan><tspan x="66.36" y="0">ebshop</tspan></text></g></svg>