<?xml version="1.0" encoding="utf-8"?>
<!-- Generator: Adobe Illustrator 22.1.0, SVG Export Plug-In . SVG Version: 6.00 Build 0)  -->
<svg version="1.1" id="Laag_1" xmlns="http://www.w3.org/2000/svg" xmlns:xlink="http://www.w3.org/1999/xlink" x="0px" y="0px"
	 viewBox="0 0 515.4 232.1" style="enable-background:new 0 0 515.4 232.1;" xml:space="preserve">
<style type="text/css">
	.st0{opacity:0.28;fill:#ED2024;}
	.st1{opacity:0.16;fill:#ED2024;}
</style>
<title>Logo_red_notext</title>
<path class="st0" d="M0.8,57.8L8,69.3c0.5,0.9,7,11,7,11s20.5-3.2,20.8-3s1.6,21.1,1.8,24.5c0.1,3.4,0.7,22.7,0.5,23
	c-3.6,2.2-7.2,4.2-11,6c-3.2,1.5-5.1,2.2-13.2,4l-13.8,3c0,0,8,6.2,10.5,8s8.2,5.2,8.2,5.2l21.5,0.2c0,0,0.3,9.6,0.8,15.2
	c0.2,3.4,0.8,11.5,1,14.5s1.5,11.2,1.5,11.2s5.4,4.2,6.2,5c0.9,0.8,8,7.5,8,7.5s-3.2-14.9-3.8-23s-0.8-15.6-0.8-18.8
	c0-4.9,0.3-9.7,1-14.5c0-0.5,0.4-2.5,0.8-2.5c0.3,0,7.9-3.4,10.8-5s4.7-3.2,7-4.8s3.9-2.8,6-4.5s4.3-3.5,4.5-3.5s-3.8-12.4-3.8-11.8
	s-7,1.8-7.8,2s-6.8,1.9-8,2c-2.2,0.1-4.3,0.1-6.5,0c-1.8-0.2-0.5-7.8-0.2-15.8s0.5-17,0.5-17s0.4-8.7,0.5-9.8
	c0.2-1.6,0.7-3.1,1.5-4.5c0.7-0.8,0.2-0.7,7-2.5c6.1-1.4,12.3-2.5,18.5-3c2.3-0.2,17-1,19.5-1.2s21.6-1.1,23.8-1.3s6.9-0.2,6.8-1.2
	c-0.3-1.5-0.3-3-0.2-4.5c0.2-0.8,3.2-4.1,3.2-5s-3.6-2.8-5.8-4s-8.5-2.9-12.8-3.5s-13.5-1-20-1.2S83.8,45.7,81,46.3
	c-2,0.3-26.5,2.2-26.5,2.2s0.3-5.5-0.2-6S38.6,44.2,38,44.3c-0.7,0.1-1.3,0.1-2,0c-0.6-0.3-1.2-0.6-1.8-1c0,0,0.3,5.1,0.2,5.2
	s0,1.5-1,1.2s-11.3,1.8-16.5,3S0.7,57.8,0.8,57.8"/>
<path class="st1" d="M160,37.5c-0.1,1.3,0,2.6,0.3,3.8c0.5,1.5,1.2,2.5,3.7,7s5.3,9.9,6.3,11.3c0.5,0.9,1.4,1.7,2.3,2.2
	c0.9,0.5,0.2,0.5,2.8,1s26.3-0.8,26.7-0.7c0.4,0,0.7,0.3,0.8,0.7c0.2,0.5-1.4,16.9-1.7,24.2s-1.2,24.8-1.2,32.2s-0.2,45.1-0.2,46.3
	s0,0.4,0.5,1.7c0.5,1.2,1.2,2.2,2,3.2c0.9,1.2,8.2,12.2,8.5,12.7s1.4,1.8,1.8,2.3c0.4,0.4,0.8,0.7,1.3,1c0.2-0.3,0.3-0.6,0.3-1
	c0.1-0.7,0.4-4.6,0.5-7.2c0.1-1.3,0.1-2.7,0-4c-0.2-1-1.3-4.8-1-4s-1-2.9-1.5-4.3s-0.9-2.2-1-2.7s0.1,0.2,0-2.2s0.1-23.4,0-25.3
	s-0.2-0.7,0.2-1.5s1.2-4.1,1.7-6.2s2.9-15.1,4-21s2.5-15.7,3.5-20.3s2.4-13.7,2.5-14.8c0.2-1.3,0.2-2.6,0-3.8
	c-0.2-0.9-0.7-1.4-1-2.3c-0.3-1-0.6-1.9-1-2.8c-0.5-1-1.1-1.4-1.2-2s-0.2-0.8,0-1.2c0.2-0.4,0.5-0.8,0.8-1.2c0.3-0.4,0.7-0.5,1.3-1
	c1-0.8,2.1-1.4,3.3-1.8c1.2-0.3,5.2-1.3,6.5-1.5s4.5-0.3,7.7-0.5s3.8-0.2,5.2-0.3c1.6-0.2,3.1-0.7,4.5-1.3c1-0.5,2.2-0.8,2.8-1.2
	c0.5-0.3,0.9-0.6,1.3-1l0.7-0.7v-6.3c0,0-2.1-0.3-3.3-0.5s-3.4-0.2-5-0.5s-2.6-0.4-4.5-0.7s-4.6-0.6-6.2-0.8s-3.2-0.2-6-0.8
	s-5.2-1.1-6.8-1.5s-3.2-0.7-3.7-0.8c-0.6-0.2-1.1-0.5-1.5-1c-0.5-0.8-0.8-1.6-1-2.5c-0.4-1.1-0.9-2.3-1.5-3.3c-0.8-1.3-1.5-2.2-2-3
	s-2.2-3.1-2.8-4s-4.2-4.8-4.2-4.8s-0.9-0.8-1.3-0.5s-0.6,0.3-0.7,0.7s0,0.2,0,1.2s-0.5,2.5-0.7,4.5s-0.3,11-0.3,12.3
	s-0.2,0.8-0.2,0.8c-0.6-0.1-1.2-0.1-1.8,0c-1.4,0.1-4.9,0.6-7.7,0.7s-2.8-0.3-4.8,0c-2.2,0.4-4.4,0.7-6.7,0.8
	c-2.8,0.2-4.5,0.3-6.7,0.3s-4.3-0.2-6.2-0.3c-2-0.2-4-0.5-6-1C161.8,37.8,160,37.5,160,37.5"/>
<path class="st1" d="M160,37.5c-0.1,1.3,0,2.6,0.3,3.8c0.5,1.5,1.2,2.5,3.7,7s5.3,9.9,6.3,11.3c0.5,0.9,1.4,1.7,2.3,2.2
	c0.9,0.5,0.2,0.5,2.8,1s26.3-0.8,26.7-0.7c0.4,0,0.7,0.3,0.8,0.7c0.2,0.5-1.4,16.9-1.7,24.2s-1.2,24.8-1.2,32.2s-0.2,45.1-0.2,46.3
	s0,0.4,0.5,1.7c0.5,1.2,1.2,2.2,2,3.2c0.9,1.2,8.2,12.2,8.5,12.7s1.4,1.8,1.8,2.3c0.4,0.4,0.8,0.7,1.3,1c0.2-0.3,0.3-0.6,0.3-1
	c0.1-0.7,0.4-4.6,0.5-7.2c0.1-1.3,0.1-2.7,0-4c-0.2-1-1.3-4.8-1-4s-1-2.9-1.5-4.3s-0.9-2.2-1-2.7s0.1,0.2,0-2.2s0.1-23.4,0-25.3
	s-0.2-0.7,0.2-1.5s1.2-4.1,1.7-6.2s2.9-15.1,4-21s2.5-15.7,3.5-20.3s2.4-13.7,2.5-14.8c0.2-1.3,0.2-2.6,0-3.8
	c-0.2-0.9-0.7-1.4-1-2.3c-0.3-1-0.6-1.9-1-2.8c-0.5-1-1.1-1.4-1.2-2s-0.2-0.8,0-1.2c0.2-0.4,0.5-0.8,0.8-1.2c0.3-0.4,0.7-0.5,1.3-1
	c1-0.8,2.1-1.4,3.3-1.8c1.2-0.3,5.2-1.3,6.5-1.5s4.5-0.3,7.7-0.5s3.8-0.2,5.2-0.3c1.6-0.2,3.1-0.7,4.5-1.3c1-0.5,2.2-0.8,2.8-1.2
	c0.5-0.3,0.9-0.6,1.3-1l0.7-0.7v-6.3c0,0-2.1-0.3-3.3-0.5s-3.4-0.2-5-0.5s-2.6-0.4-4.5-0.7s-4.6-0.6-6.2-0.8s-3.2-0.2-6-0.8
	s-5.2-1.1-6.8-1.5s-3.2-0.7-3.7-0.8c-0.6-0.2-1.1-0.5-1.5-1c-0.5-0.8-0.8-1.6-1-2.5c-0.4-1.1-0.9-2.3-1.5-3.3c-0.8-1.3-1.5-2.2-2-3
	s-2.2-3.1-2.8-4s-4.2-4.8-4.2-4.8s-0.9-0.8-1.3-0.5s-0.6,0.3-0.7,0.7s0,0.2,0,1.2s-0.5,2.5-0.7,4.5s-0.3,11-0.3,12.3
	s-0.2,0.8-0.2,0.8c-0.6-0.1-1.2-0.1-1.8,0c-1.4,0.1-4.9,0.6-7.7,0.7s-2.8-0.3-4.8,0c-2.2,0.4-4.4,0.7-6.7,0.8
	c-2.8,0.2-4.5,0.3-6.7,0.3s-4.3-0.2-6.2-0.3c-2-0.2-4-0.5-6-1C161.8,37.8,160,37.5,160,37.5z"/>
<path class="st1" d="M263.8,0.1c-0.5,0.3-2.7,10.6-3.3,14s-3,17.3-3.3,21.7s-1.4,26.2-1.7,29.7s-1.1,14.1-1.3,21.3s-0.4,17.5-0.3,27
	s0.8,21.1,1.3,33s1.3,28.1,1.7,34.3s2.1,20.4,2.3,23s5.1,24.1,5.3,25c0.3,1,0.7,1.9,1.3,2.7c0.2,0.3,0.6,0.3,0.9,0.1
	c0,0,0.1-0.1,0.1-0.1c0.2-0.3,0.4-3.7,0.3-6s-0.6-18.6-0.7-23.7s0.2-13.2,0.3-21s-0.2-25.1,0-36.7s0.7-21,0.7-21
	c0.5,0.2,0.8,0.5,1,1c0.4,0.8,0.7-15.7,0.7-15.7s-1.2,0.6-1.3,0.3s0.2-3.1,0-9s0-40,0-51V23.8c0-3.2-0.2-7.5-0.7-11.7
	c-0.3-2.6-0.7-5.1-1.3-7.6c-0.5-2.6-0.6-3.6-0.7-4S264.3-0.2,263.8,0.1"/>
<path class="st1" d="M263.8,0.1c-0.5,0.3-2.7,10.6-3.3,14s-3,17.3-3.3,21.7s-1.4,26.2-1.7,29.7s-1.1,14.1-1.3,21.3s-0.4,17.5-0.3,27
	s0.8,21.1,1.3,33s1.3,28.1,1.7,34.3s2.1,20.4,2.3,23s5.1,24.1,5.3,25c0.3,1,0.7,1.9,1.3,2.7c0.2,0.3,0.6,0.3,0.9,0.1
	c0,0,0.1-0.1,0.1-0.1c0.2-0.3,0.4-3.7,0.3-6s-0.6-18.6-0.7-23.7s0.2-13.2,0.3-21s-0.2-25.1,0-36.7s0.7-21,0.7-21
	c0.5,0.2,0.8,0.5,1,1c0.4,0.8,0.7-15.7,0.7-15.7s-1.2,0.6-1.3,0.3s0.2-3.1,0-9s0-40,0-51V23.8c0-3.2-0.2-7.5-0.7-11.7
	c-0.3-2.6-0.7-5.1-1.3-7.6c-0.5-2.6-0.6-3.6-0.7-4S264.3-0.2,263.8,0.1L263.8,0.1z"/>
<path class="st1" d="M347.7,55c0,0.5,0,1-0.2,1.5c-0.2,0.5-1,1-1.8,1.7c-1.1,1.1-2.1,2.3-3,3.5c-0.7,0.9-2.2,3.1-3.2,4.5
	c-1.2,2-2.1,4.1-2.8,6.3c-0.8,2.3-1.6,6.1-2,7.7s-0.9,5.1-1,6s-0.1,3.4-0.2,5.2c-0.1,2.2,0.1,4.5,0.5,6.7c0.5,2.3,1.2,4.3,1.5,5.3
	s1.1,3.9,1.5,5.3c0.4,1.4,0.8,2.8,1.3,4.2c0.7,1.8,1.7,3.6,2.8,5.2c1.3,2,2.8,4.5,3.7,5.7c1.1,1.5,2.5,2.9,4,4
	c0.8,0.4,2.4,1.2,2.8,2c0.5,0.8,1.1,1.5,1.8,2.2c0.4,0.4,1,0.4,1.8,0.5c0.8,0,1.7-0.1,2.5-0.3c1-0.1,2-0.5,2.8-1
	c1.3-1.1,2.4-2.2,3.5-3.5c0.7-0.8,1.4-1.7,2-2.7c0.7-1.3,1.4-2.7,2-4.2c0.6-1.4,1.1-2.9,1.5-4.3c0.4-1.5,0.7-3,0.8-4.5
	c0.3-2,0.4-4.1,0.3-6.2c0-2-0.3-4-0.3-4.3s-0.9-1.2-0.8-1s-0.1-0.8,0-1.2s0.5-0.4,0.8-0.8s1.2-2,1.8-3c0.7-0.9,1.3-1.8,1.8-2.8
	c0.6-1.4,0.8-2.8,1.3-4.3c0.5-1.4,0.9-2.7,1.2-4.2c0.2-1.3,0.6-2.8,0.7-3.5c0.1-1,0.2-2,0.2-3c0-1.7-0.5-1.7-0.8-3.2
	c-0.3-1.2-0.8-2.4-1.3-3.5c-0.7-1.5-2-2.3-3.3-3.7c-1.9-1.7-3.9-3.2-6-4.5c-2.1-1.4-7.8,11.6-6.4,12.4c0.4,0.6,0.3,0.5,0.5,0.8
	c0.5,0.2,1,0.1,1,1c0.2,2.1,0.2,4.2,0,6.2c-0.1,1.7-0.3,3.4-0.6,4.8s-0.4,1.9-0.6,3.3c-0.1,1.5-0.4,2.9-0.7,4.3
	c-0.7,2.8-1.5,5.5-2.5,8.1c-0.7,1-1.5,1.9-2.4,2.7c-0.7,0.8-1.9,2.2-2.1,2.6c-0.6,0.8-0.5,0.8-0.9,0.3c-0.4-0.5-0.7-1.1-0.8-1.8
	c-0.4-1.2-0.4-12.8-0.2-15.4s0-5.6,0.2-7.2s0.6-1.5,1.2-1.8s0.7-0.8,0.8-1.5c0.9-2.1,2-4.1,3.2-5.9c0.5-0.8,1.1-1.5,1.8-2.2
	c1-1-0.2-0.2,1,0.3c0.2,0.2,0.6,0.6,0.9,1c2.5,1.9,8.2-11,6.5-12.2s-7.2-4.4-7.8-4.7c-3-1.3-7.5-2.8-6.3-2.5s-1-0.5-1.3-0.3
	C349.6,55.2,348.6,55.2,347.7,55"/>
<path class="st1" d="M347.7,55c0,0.5,0,1-0.2,1.5c-0.2,0.5-1,1-1.8,1.7c-1.1,1.1-2.1,2.3-3,3.5c-0.7,0.9-2.2,3.1-3.2,4.5
	c-1.2,2-2.1,4.1-2.8,6.3c-0.8,2.3-1.6,6.1-2,7.7s-0.9,5.1-1,6s-0.1,3.4-0.2,5.2c-0.1,2.2,0.1,4.5,0.5,6.7c0.5,2.3,1.2,4.3,1.5,5.3
	s1.1,3.9,1.5,5.3c0.4,1.4,0.8,2.8,1.3,4.2c0.7,1.8,1.7,3.6,2.8,5.2c1.3,2,2.8,4.5,3.7,5.7c1.1,1.5,2.5,2.9,4,4
	c0.8,0.4,2.4,1.2,2.8,2c0.5,0.8,1.1,1.5,1.8,2.2c0.4,0.4,1,0.4,1.8,0.5c0.8,0,1.7-0.1,2.5-0.3c1-0.1,2-0.5,2.8-1
	c1.3-1.1,2.4-2.2,3.5-3.5c0.7-0.8,1.4-1.7,2-2.7c0.7-1.3,1.4-2.7,2-4.2c0.6-1.4,1.1-2.9,1.5-4.3c0.4-1.5,0.7-3,0.8-4.5
	c0.3-2,0.4-4.1,0.3-6.2c0-2-0.3-4-0.3-4.3s-0.9-1.2-0.8-1s-0.1-0.8,0-1.2s0.5-0.4,0.8-0.8s1.2-2,1.8-3c0.7-0.9,1.3-1.8,1.8-2.8
	c0.6-1.4,0.8-2.8,1.3-4.3c0.5-1.4,0.9-2.7,1.2-4.2c0.2-1.3,0.6-2.8,0.7-3.5c0.1-1,0.2-2,0.2-3c0-1.7-0.5-1.7-0.8-3.2
	c-0.3-1.2-0.8-2.4-1.3-3.5c-0.7-1.5-2-2.3-3.3-3.7c-1.9-1.7-3.9-3.2-6-4.5c-2.1-1.4-7.8,11.6-6.4,12.4c0.4,0.6,0.3,0.5,0.5,0.8
	c0.5,0.2,1,0.1,1,1c0.2,2.1,0.2,4.2,0,6.2c-0.1,1.7-0.3,3.4-0.6,4.8s-0.4,1.9-0.6,3.3c-0.1,1.5-0.4,2.9-0.7,4.3
	c-0.7,2.8-1.5,5.5-2.5,8.1c-0.7,1-1.5,1.9-2.4,2.7c-0.7,0.8-1.9,2.2-2.1,2.6c-0.6,0.8-0.5,0.8-0.9,0.3c-0.4-0.5-0.7-1.1-0.8-1.8
	c-0.4-1.2-0.4-12.8-0.2-15.4s0-5.6,0.2-7.2s0.6-1.5,1.2-1.8s0.7-0.8,0.8-1.5c0.9-2.1,2-4.1,3.2-5.9c0.5-0.8,1.1-1.5,1.8-2.2
	c1-1-0.2-0.2,1,0.3c0.2,0.2,0.6,0.6,0.9,1c2.5,1.9,8.2-11,6.5-12.2s-7.2-4.4-7.8-4.7c-3-1.3-7.5-2.8-6.3-2.5s-1-0.5-1.3-0.3
	C349.6,55.2,348.6,55.2,347.7,55L347.7,55L347.7,55z"/>
<path class="st1" d="M417,31.3c0.4-1,0.5-2.2,0.2-3.2c-0.4-1-2.2-2.1-2.8-2.5c-1.2-0.9-2.5-1.7-3.8-2.5c-1.5-0.8-5.8-1.8-7-2.2
	s-6.1-2.6-7.8-2.8c-2.6-0.1-5.2,0-7.8,0.2c-1.6,0.3-3.2,0.8-4.8,1.5c-1.6,0.6-6,2.1-7,2.5s-4.8,2.6-5.5,3c-0.9,0.6-1.6,1.5-2,2.5
	c-0.1,0.9,0,1.9,0.2,2.8c0.2,1.2,0.6,2.4,1.2,3.5c0.9,1.9,6.7,11.1,8.8,14.5c2.1,3.4,10.1,16.4,13,21.8s9.7,20.1,11.2,23.5
	s5.9,18.2,6.8,20.5c1,2.9,1.7,5.9,2.2,9c0.2,1.7,0,5.9,0,8c0,2.6-0.3,5.2-0.8,7.8c-0.6,4.4-1.4,8.7-2.5,13c-1.3,4.5-3,8.8-5,13
	c-1,1.9-4.1,7.6-5,9c-1,1.5-2.2,2.8-3.5,4c-1.1,1-2.3,1.9-3.5,2.8c-1.2,0.9-5.8,3.7-6.8,4.2c-2,1.1-4.2,1.8-6.5,2
	c-3.1,0.3-8.5,0.8-10,0.5c-1.5-0.4-2.9-0.9-4.2-1.5c-0.6-0.2-4.9-2-6-2.5c-1.3-0.7-2.6-1.5-3.8-2.5c-1-0.9-2-1.9-2.8-3
	c-1.4-1.9-2.2-3.2-3-4.5c-0.7-1.1-1.3-2.4-1.5-3.8c-0.2-1.3,0-1.8,0.5-3.2s3.6-12.2,4.2-13.8c0.8-2.4,1.4-4.8,1.8-7.2
	c0.1-1.3,0.1-3.1-0.5-3c-3,1.2-5.9,2.5-8.8,4c-2.3,1.2-7.2,6.2-8.2,8.2c-1,1.9-1.8,3.8-2.5,5.8c-0.7,1.8-1.2,3.6-1.5,5.5
	c-0.1,1.4,0,2.7,0.5,4c0.5,1.2,1.2,2.2,2,3.8c0.7,1.2,1.5,2.3,2.5,3.2c1.1,1.5,2.4,2.9,3.8,4.2c1,0.7,1.8,1.6,2.2,2.8
	c0.6,1.5,1.2,3,2,4.5c0.7,1.5,1.7,3,2.8,4.2c1.1,1.4,4,5.2,5.2,6.8c1.6,1.9,3.5,3.6,5.5,5c2.1,1.4,4.2,2.7,6.5,3.8
	c2.5,1.2,5.1,2.1,7.8,2.8c2.1,0.4,13.8,0.8,15,0.2c1.1-0.7,2.3-1.2,3.5-1.5c1.4-0.2,6.6-3.2,7.5-3.8s3.4-1.6,4.8-2.2s3.3-2.8,4.5-4
	c1.5-1.6,2.8-3.4,4-5.2c1.2-1.9,2.3-3.9,3.2-6c1.8-3.9,3.4-7.9,4.8-12c1.2-3.4,2-6.9,2.5-10.5c0.6-4.6,0.4-6.2,0.8-10.5
	s0.5-8.7,0.5-11.8s-0.4-10.2-0.8-14.5s-1.8-13.5-2.2-15.5c-0.6-3-1.3-5.9-2.2-8.8c-1.6-5-2.7-8.7-4.2-13.2c-1.6-5.1-3.5-10.1-5.8-15
	c-3.1-6.6-5.4-10.8-8.2-15.8s-2.7-5.3-4.8-8.8c-1.2-2-2.5-3.8-4-5.5c-0.6-0.8-1.8-1.9-2.5-2.8s-1-1.2-1.8-2c-0.4-0.4-0.7-0.8-1-1.2
	c0.1-0.6,0.3-1.2,0.5-1.8c0.3-0.9,1.3-1.4,2-2.2c0.8-1,1.8-1.8,3-2.2c1.5-0.5,3-0.9,4.5-1.2c1-0.1,3.8,0,4.8,0s2.4-0.1,5.2,0
	s5.8,0.4,6.2,0.5c0.5,0.1,1,0,1.5-0.2c0.5-0.3,0.9-0.6,1.2-1C416.4,32.3,416.8,31.8,417,31.3"/>
<path class="st1" d="M417,31.3c0.4-1,0.5-2.2,0.2-3.2c-0.4-1-2.2-2.1-2.8-2.5c-1.2-0.9-2.5-1.7-3.8-2.5c-1.5-0.8-5.8-1.8-7-2.2
	s-6.1-2.6-7.8-2.8c-2.6-0.1-5.2,0-7.8,0.2c-1.6,0.3-3.2,0.8-4.8,1.5c-1.6,0.6-6,2.1-7,2.5s-4.8,2.6-5.5,3c-0.9,0.6-1.6,1.5-2,2.5
	c-0.1,0.9,0,1.9,0.2,2.8c0.2,1.2,0.6,2.4,1.2,3.5c0.9,1.9,6.7,11.1,8.8,14.5c2.1,3.4,10.1,16.4,13,21.8s9.7,20.1,11.2,23.5
	s5.9,18.2,6.8,20.5c1,2.9,1.7,5.9,2.2,9c0.2,1.7,0,5.9,0,8c0,2.6-0.3,5.2-0.8,7.8c-0.6,4.4-1.4,8.7-2.5,13c-1.3,4.5-3,8.8-5,13
	c-1,1.9-4.1,7.6-5,9c-1,1.5-2.2,2.8-3.5,4c-1.1,1-2.3,1.9-3.5,2.8c-1.2,0.9-5.8,3.7-6.8,4.2c-2,1.1-4.2,1.8-6.5,2
	c-3.1,0.3-8.5,0.8-10,0.5c-1.5-0.4-2.9-0.9-4.2-1.5c-0.6-0.2-4.9-2-6-2.5c-1.3-0.7-2.6-1.5-3.8-2.5c-1-0.9-2-1.9-2.8-3
	c-1.4-1.9-2.2-3.2-3-4.5c-0.7-1.1-1.3-2.4-1.5-3.8c-0.2-1.3,0-1.8,0.5-3.2s3.6-12.2,4.2-13.8c0.8-2.4,1.4-4.8,1.8-7.2
	c0.1-1.3,0.1-3.1-0.5-3c-3,1.2-5.9,2.5-8.8,4c-2.3,1.2-7.2,6.2-8.2,8.2c-1,1.9-1.8,3.8-2.5,5.8c-0.7,1.8-1.2,3.6-1.5,5.5
	c-0.1,1.4,0,2.7,0.5,4c0.5,1.2,1.2,2.2,2,3.8c0.7,1.2,1.5,2.3,2.5,3.2c1.1,1.5,2.4,2.9,3.8,4.2c1,0.7,1.8,1.6,2.2,2.8
	c0.6,1.5,1.2,3,2,4.5c0.7,1.5,1.7,3,2.8,4.2c1.1,1.4,4,5.2,5.2,6.8c1.6,1.9,3.5,3.6,5.5,5c2.1,1.4,4.2,2.7,6.5,3.8
	c2.5,1.2,5.1,2.1,7.8,2.8c2.1,0.4,13.8,0.8,15,0.2c1.1-0.7,2.3-1.2,3.5-1.5c1.4-0.2,6.6-3.2,7.5-3.8s3.4-1.6,4.8-2.2s3.3-2.8,4.5-4
	c1.5-1.6,2.8-3.4,4-5.2c1.2-1.9,2.3-3.9,3.2-6c1.8-3.9,3.4-7.9,4.8-12c1.2-3.4,2-6.9,2.5-10.5c0.6-4.6,0.4-6.2,0.8-10.5
	s0.5-8.7,0.5-11.8s-0.4-10.2-0.8-14.5s-1.8-13.5-2.2-15.5c-0.6-3-1.3-5.9-2.2-8.8c-1.6-5-2.7-8.7-4.2-13.2c-1.6-5.1-3.5-10.1-5.8-15
	c-3.1-6.6-5.4-10.8-8.2-15.8s-2.7-5.3-4.8-8.8c-1.2-2-2.5-3.8-4-5.5c-0.6-0.8-1.8-1.9-2.5-2.8s-1-1.2-1.8-2c-0.4-0.4-0.7-0.8-1-1.2
	c0.1-0.6,0.3-1.2,0.5-1.8c0.3-0.9,1.3-1.4,2-2.2c0.8-1,1.8-1.8,3-2.2c1.5-0.5,3-0.9,4.5-1.2c1-0.1,3.8,0,4.8,0s2.4-0.1,5.2,0
	s5.8,0.4,6.2,0.5c0.5,0.1,1,0,1.5-0.2c0.5-0.3,0.9-0.6,1.2-1C416.4,32.3,416.8,31.8,417,31.3z"/>
<path class="st1" d="M421.3,72.2c0,0,7.1,10.6,7.3,11.3s1,4.8,1.3,6.3c0.5,2.2,1.1,4.4,1.8,6.5c0.7,2.2,2.2,5.1,2.8,6.7
	c1,2.6,2.2,5.1,3.5,7.5c1,1.6,4.3,6.5,5.3,7.8c1.7,2.4,3.7,4.6,6,6.5c4.1,3.5,8.8,6.2,13.8,8c2.3,0.8,4.7,1.3,7.2,1.5
	c1.3,0.2,4,0.4,5,0.5c1.5,0,3.1-0.3,4.5-0.8c1.8-0.7,4.3-2.1,6.2-3c2.3-1.2,4.5-2.7,6.5-4.5c2.1-1.9,10.2-8.7,10.7-8.7
	c0.7-0.1,1.3-0.4,1.8-0.8c0.9-0.6,4.7-5.2,5.3-5.8s4.3-3.9,4.7-4.5c0.2-0.5,0.3-1.1,0.2-1.7c-0.1-0.7-0.2-1.4-0.5-2
	c-0.3-0.5-0.6-0.9-1-1.2c-0.5-0.4-1.1-0.7-2-1.3c-0.7-0.5-1.5-0.8-2.3-0.8c-0.6-0.1-5.5-0.2-7.7-0.2s-7.1,0.2-8.3,0.3
	s-3.2,0.7-4,0.8c-0.6,0.2-1.1,0.4-1.7,0.7c0,0,0,1.6,0,2.5s-0.9,2.2-2.2,3.2c-1.3,0.9-2.7,1.7-4.2,2.3c-0.9,0.4-3.1,1.4-4.2,1.8
	s-1.1,0.4-5,1.3c-2.6,0.8-5.4,1-8.2,0.7c-1.7-0.3-2-0.7-4.8-2c-3.1-1.5-5.9-3.4-8.5-5.7c-1.1-1.2-2.1-2.5-3-3.8
	c-1.2-1.6-2.4-3.2-3.3-5c-0.9-2-1.6-4.1-2-6.3c-0.2-1.3-0.1-3.6-0.2-4s0.6-0.5,1-0.8c0.6-0.3,1.2-0.5,1.8-0.5c0.9-0.1,5.5,0.1,7,0
	s4.4-0.5,8.2-1.2s9.5-1.9,11.5-2.5c2.3-0.7,4.5-1.6,6.7-2.7c1.6-0.8,4.9-2.2,6.2-3c1.5-1.2,2.9-2.5,4.2-4c0.7-0.8,2.8-2.8,3.7-4
	c0.7-1.2,1.4-2.5,1.8-3.8c0.6-1.1,1-2.4,1.2-3.7c0.2-2.1,0.2-4.1,0-6.2c-0.1-2.1-0.5-4.3-1-6.3c-0.4-1.7-1.2-4.8-1.5-5.8
	c-0.3-1.8-1.1-3.5-2.2-5c-0.9-1-2-1.8-3.2-2.3c-1.4-0.8-2.8-1.5-4.3-2c-1.5-0.5-3.1-0.9-4.7-1.2c-1.9-0.4-8-2-9.2-2
	s-3.7,0.2-3.7,0.2s-2.2,0-3.7,0.2c-1.3,0.2-2.5,0.6-3.7,1.2c-1.1,0.5-5.3,2.5-6.3,3.2c-1.5,1.1-3,2.2-4.3,3.5c-1,1-3.6,4.1-4.3,4.8
	c-1.1,1.2-2.1,2.4-3,3.7c-1.1,1.6-1.9,2.9-2.5,3.7c-2.4,4.2,12.5,11.5,14.3,9.9c1.3-1.1,1.3-1.1,3-2.6c3.2-2.2,8.1-4.3,14.8-6.8
	c1-0.3,2-0.6,3-0.7c1.3-0.2,7.5-0.7,7.9-0.3c0.4,0.5,0.7,1.1,0.6,1.7c-0.2,1.4-0.8,2.7-1.5,3.9c-1.1,1.4-2.4,2.7-3.9,3.9
	c-1.5,1.3-4,3.6-10.9,6.9c-2.7,1-5.5,1.9-8.3,2.6c-3.6,0.9-7.2,1.4-10.9,1.4c0-0.2,0,0.4,0-0.7c0.3-2,1-3.9,2.2-5.5
	c1.2-1.4,2.4-2.6,3.8-3.8c7.1-12.1-11.6-14.9-14.3-9.8c-1.1,2.2-3,6.3-4,8c-1.1,2.1-2,4.3-2.8,6.5c-0.6,1.5-1.3,4.2-1.7,5.3
	c-0.2,0.8-0.4,1.6-0.7,2.3c-0.3,0.3,0.2,0.1-0.5,0.3S421.3,72.1,421.3,72.2"/>
<path class="st1" d="M421.3,72.2c0,0,7.1,10.6,7.3,11.3s1,4.8,1.3,6.3c0.5,2.2,1.1,4.4,1.8,6.5c0.7,2.2,2.2,5.1,2.8,6.7
	c1,2.6,2.2,5.1,3.5,7.5c1,1.6,4.3,6.5,5.3,7.8c1.7,2.4,3.7,4.6,6,6.5c4.1,3.5,8.8,6.2,13.8,8c2.3,0.8,4.7,1.3,7.2,1.5
	c1.3,0.2,4,0.4,5,0.5c1.5,0,3.1-0.3,4.5-0.8c1.8-0.7,4.3-2.1,6.2-3c2.3-1.2,4.5-2.7,6.5-4.5c2.1-1.9,10.2-8.7,10.7-8.7
	c0.7-0.1,1.3-0.4,1.8-0.8c0.9-0.6,4.7-5.2,5.3-5.8s4.3-3.9,4.7-4.5c0.2-0.5,0.3-1.1,0.2-1.7c-0.1-0.7-0.2-1.4-0.5-2
	c-0.3-0.5-0.6-0.9-1-1.2c-0.5-0.4-1.1-0.7-2-1.3c-0.7-0.5-1.5-0.8-2.3-0.8c-0.6-0.1-5.5-0.2-7.7-0.2s-7.1,0.2-8.3,0.3
	s-3.2,0.7-4,0.8c-0.6,0.2-1.1,0.4-1.7,0.7c0,0,0,1.6,0,2.5s-0.9,2.2-2.2,3.2c-1.3,0.9-2.7,1.7-4.2,2.3c-0.9,0.4-3.1,1.4-4.2,1.8
	s-1.1,0.4-5,1.3c-2.6,0.8-5.4,1-8.2,0.7c-1.7-0.3-2-0.7-4.8-2c-3.1-1.5-5.9-3.4-8.5-5.7c-1.1-1.2-2.1-2.5-3-3.8
	c-1.2-1.6-2.4-3.2-3.3-5c-0.9-2-1.6-4.1-2-6.3c-0.2-1.3-0.1-3.6-0.2-4s0.6-0.5,1-0.8c0.6-0.3,1.2-0.5,1.8-0.5c0.9-0.1,5.5,0.1,7,0
	s4.4-0.5,8.2-1.2s9.5-1.9,11.5-2.5c2.3-0.7,4.5-1.6,6.7-2.7c1.6-0.8,4.9-2.2,6.2-3c1.5-1.2,2.9-2.5,4.2-4c0.7-0.8,2.8-2.8,3.7-4
	c0.7-1.2,1.4-2.5,1.8-3.8c0.6-1.1,1-2.4,1.2-3.7c0.2-2.1,0.2-4.1,0-6.2c-0.1-2.1-0.5-4.3-1-6.3c-0.4-1.7-1.2-4.8-1.5-5.8
	c-0.3-1.8-1.1-3.5-2.2-5c-0.9-1-2-1.8-3.2-2.3c-1.4-0.8-2.8-1.5-4.3-2c-1.5-0.5-3.1-0.9-4.7-1.2c-1.9-0.4-8-2-9.2-2
	s-3.7,0.2-3.7,0.2s-2.2,0-3.7,0.2c-1.3,0.2-2.5,0.6-3.7,1.2c-1.1,0.5-5.3,2.5-6.3,3.2c-1.5,1.1-3,2.2-4.3,3.5c-1,1-3.6,4.1-4.3,4.8
	c-1.1,1.2-2.1,2.4-3,3.7c-1.1,1.6-1.9,2.9-2.5,3.7c-2.4,4.2,12.5,11.5,14.3,9.9c1.3-1.1,1.3-1.1,3-2.6c3.2-2.2,8.1-4.3,14.8-6.8
	c1-0.3,2-0.6,3-0.7c1.3-0.2,7.5-0.7,7.9-0.3c0.4,0.5,0.7,1.1,0.6,1.7c-0.2,1.4-0.8,2.7-1.5,3.9c-1.1,1.4-2.4,2.7-3.9,3.9
	c-1.5,1.3-4,3.6-10.9,6.9c-2.7,1-5.5,1.9-8.3,2.6c-3.6,0.9-7.2,1.4-10.9,1.4c0-0.2,0,0.4,0-0.7c0.3-2,1-3.9,2.2-5.5
	c1.2-1.4,2.4-2.6,3.8-3.8c7.1-12.1-11.6-14.9-14.3-9.8c-1.1,2.2-3,6.3-4,8c-1.1,2.1-2,4.3-2.8,6.5c-0.6,1.5-1.3,4.2-1.7,5.3
	c-0.2,0.8-0.4,1.6-0.7,2.3c-0.3,0.3,0.2,0.1-0.5,0.3S421.3,72.1,421.3,72.2L421.3,72.2L421.3,72.2z"/>
<path class="st1" d="M79.6,117.2c-0.2-3-0.4,0.7-0.1-4.6s0.5-7.1,2.2-12s1.2-3.3,3.4-7.4s10.4-10.7,10.9-11.1s1.3-0.2,1-0.2
	s8.9,4.5,11.3,7.7s7.1,13.2,7.9,15.6c0.6,1.5,1.5,3,2.6,4.2l0.1,6.7l-1,11l-2.2,10.7c-1.5,2.2-3.2,4.3-5.2,6.1
	c-2.7,2.3-7.8,4.5-8.8,5.3s-1,0.5-2.2,0c-2.7-1-14.4-16.6-16.3-20.4s-2.8-6.1-2.8-6.1s11.8-3.8,11.9-2.5s0.8,4.3,1,4.5
	c0.8,0.9,3.3-3,3.8-3.9s3.4-6.5,3.9-10.5c0.4-2.3,0.2-4.6-0.5-6.7c-0.8-2.4-2.1-4.7-3.9-6.6c-1.1-1-3.3-1.5-3.5-1.3
	s-0.7,23.5-0.8,24.3s-11.9,2.7-11.9,2.7S79.9,120.2,79.6,117.2"/>
<path class="st1" d="M79.6,117.2c-0.2-3-0.4,0.7-0.1-4.6s0.5-7.1,2.2-12s1.2-3.3,3.4-7.4s10.4-10.7,10.9-11.1s1.3-0.2,1-0.2
	s8.9,4.5,11.3,7.7s7.1,13.2,7.9,15.6c0.6,1.5,1.5,3,2.6,4.2l0.1,6.7l-1,11l-2.2,10.7c-1.5,2.2-3.2,4.3-5.2,6.1
	c-2.7,2.3-7.8,4.5-8.8,5.3s-1,0.5-2.2,0c-2.7-1-14.4-16.6-16.3-20.4s-2.8-6.1-2.8-6.1s11.8-3.8,11.9-2.5s0.8,4.3,1,4.5
	c0.8,0.9,3.3-3,3.8-3.9s3.4-6.5,3.9-10.5c0.4-2.3,0.2-4.6-0.5-6.7c-0.8-2.4-2.1-4.7-3.9-6.6c-1.1-1-3.3-1.5-3.5-1.3
	s-0.7,23.5-0.8,24.3s-11.9,2.7-11.9,2.7S79.9,120.2,79.6,117.2L79.6,117.2z"/>
<path class="st1" d="M111,109.9c0,0,1.2-1,5.6-4.9c4.2-4.2,19.8-25.6,27.1-32c1.2-0.9,1.5-0.8,2.2-1.5s0.3-1.1-0.1-1.8
	s-8.5-6.9-8.5-6.9l2.5-0.5c1.9-0.4,1.3-0.3,5.5-0.9c6.5-0.5,17,2.8,21.2,4.5s20.6,14.5,27.2,29.1c2.6,6.3,5,10.4,4.9,12.4
	s-5.7,15.2-8.2,19.5c-0.6,5.6-1.7,11.2-3.1,16.6c-1.3,4.3-5,12.9-5.6,13.4s-4.3,9.3-5.5,11.5s-7.2,7.4-12.5,8.9
	c-4,1.2-8.2,2.1-12.4,2.6c-3.4,0.3-11,0.2-14.9-3.5s-6-5.6-7.1-7.5c-1.2-2-2.6-3.9-4.1-5.8c-1.4-1.7-12.8-16.8-14.5-19.6
	c-1-1.7-2.1-3.4-3.4-4.9c-2.8-3.7,22-3.3,22-0.7c0,3.1,0.3,6.3,0.9,9.3c0.7,3.1,1.5,6,2.2,6.9s1.9,1.8,4.6,2s5.4-0.3,9.6-1.8
	c6.2-1.4,9.8-4.1,13.2-8.9s5.8-7.4,7.5-12c2.1-6.5,3.5-13.3,4.2-20.1c0.8-7.4-2.3-15.9-3.1-18.4s-2-5.4-3.3-6.6
	c-1.3-1-2.3-2.6-2.5-4.2c0,0.9-0.3,1.8-0.7,2.6c-0.4,2.2-5.6,3-8.4,4.9s-11.3,8.5-15.2,14.9s-4.7,7.6-6.8,14s-2.5,17.2-2.5,17.2
	l-22.1,0.7L111,109.9"/>
<path class="st1" d="M111,109.9c0,0,1.2-1,5.6-4.9c4.2-4.2,19.8-25.6,27.1-32c1.2-0.9,1.5-0.8,2.2-1.5s0.3-1.1-0.1-1.8
	s-8.5-6.9-8.5-6.9l2.5-0.5c1.9-0.4,1.3-0.3,5.5-0.9c6.5-0.5,17,2.8,21.2,4.5s20.6,14.5,27.2,29.1c2.6,6.3,5,10.4,4.9,12.4
	s-5.7,15.2-8.2,19.5c-0.6,5.6-1.7,11.2-3.1,16.6c-1.3,4.3-5,12.9-5.6,13.4s-4.3,9.3-5.5,11.5s-7.2,7.4-12.5,8.9
	c-4,1.2-8.2,2.1-12.4,2.6c-3.4,0.3-11,0.2-14.9-3.5s-6-5.6-7.1-7.5c-1.2-2-2.6-3.9-4.1-5.8c-1.4-1.7-12.8-16.8-14.5-19.6
	c-1-1.7-2.1-3.4-3.4-4.9c-2.8-3.7,22-3.3,22-0.7c0,3.1,0.3,6.3,0.9,9.3c0.7,3.1,1.5,6,2.2,6.9s1.9,1.8,4.6,2s5.4-0.3,9.6-1.8
	c6.2-1.4,9.8-4.1,13.2-8.9s5.8-7.4,7.5-12c2.1-6.5,3.5-13.3,4.2-20.1c0.8-7.4-2.3-15.9-3.1-18.4s-2-5.4-3.3-6.6
	c-1.3-1-2.3-2.6-2.5-4.2c0,0.9-0.3,1.8-0.7,2.6c-0.4,2.2-5.6,3-8.4,4.9s-11.3,8.5-15.2,14.9s-4.7,7.6-6.8,14s-2.5,17.2-2.5,17.2
	l-22.1,0.7L111,109.9L111,109.9z"/>
<path class="st1" d="M267.5,107.9l0.7,0.6c0,0,0.4,0.7,0.5-0.1s0.1-6.7,0.7-9s2.2-5.8,2.8-7.3s2.9-9.6,3.3-10.6s2-5.8,4-8
	c1.5-1.8,3.3-3.2,5.4-4.2c1.8-0.7,3.6-1.5,5.3-2.5c0.7-0.5,1.4-1.6,2.3-2.3c0.9-0.5,2-0.7,3-0.7l0.1,3.1c0.1,0.8,0.3,1.6,0.6,2.4
	c0.4,0.6,2.8,2.2,3.4,2.8s1.9,2.2,3.3,3.8c1.8,1.4,7.6,3.7,7.9,4.1s0.3,0.7,0.6,1.4s2.6,5.1,3.2,8s1.6,12.8,1.8,16.5
	c0.3,2.6,0.7,12.1,0.6,16.1c-0.2,2.7-0.7,5.3-1.4,7.9c-0.1,2.6-0.5,7.3-0.8,8.8s-3.2,8.8-3.8,10.2s-2.9,7.4-5.6,9.4
	c-1.7,1.4-3.9,2.6-9.4,2.1c-4-0.4-5.4-0.5-9.2-2.4c-2.1-1.1-5.6-2.5-8-5.9s-7.5-14.6-8.2-17s-2-8.9-2.5-11.3s-2-0.6-2-0.6l-0.5-7
	c0,0,14.4-2.7,14,0.6s-1,7.3-1.1,9.1s-0.2,8.2-0.1,9.8c0.2,1.7,0.9,3.4,2.1,4.7c1.2,0.6,2.5,1,3.8,1.1c1.8-0.2,3.5-0.7,5.2-1.5
	c1.4-0.7,4-2.2,8.6-9.1s7.6-14,8.4-17.1c0.8-4.8,0.8-9.6,0-14.4c-0.9-3.2-2-6.3-3.2-9.3c-2.7-4.4-4.4-4.7-5.5-5.2s-0.8-0.7-2.1-0.2
	s-4.3,3.4-4.3,3.4l-5.6,8.1l-3.2,9.8c0,0-2.2,8.2-2.9,10.5s-14-0.5-14-0.5l-0.2-7.9L267.5,107.9"/>
<path class="st1" d="M267.5,107.9l0.7,0.6c0,0,0.4,0.7,0.5-0.1s0.1-6.7,0.7-9s2.2-5.8,2.8-7.3s2.9-9.6,3.3-10.6s2-5.8,4-8
	c1.5-1.8,3.3-3.2,5.4-4.2c1.8-0.7,3.6-1.5,5.3-2.5c0.7-0.5,1.4-1.6,2.3-2.3c0.9-0.5,2-0.7,3-0.7l0.1,3.1c0.1,0.8,0.3,1.6,0.6,2.4
	c0.4,0.6,2.8,2.2,3.4,2.8s1.9,2.2,3.3,3.8c1.8,1.4,7.6,3.7,7.9,4.1s0.3,0.7,0.6,1.4s2.6,5.1,3.2,8s1.6,12.8,1.8,16.5
	c0.3,2.6,0.7,12.1,0.6,16.1c-0.2,2.7-0.7,5.3-1.4,7.9c-0.1,2.6-0.5,7.3-0.8,8.8s-3.2,8.8-3.8,10.2s-2.9,7.4-5.6,9.4
	c-1.7,1.4-3.9,2.6-9.4,2.1c-4-0.4-5.4-0.5-9.2-2.4c-2.1-1.1-5.6-2.5-8-5.9s-7.5-14.6-8.2-17s-2-8.9-2.5-11.3s-2-0.6-2-0.6l-0.5-7
	c0,0,14.4-2.7,14,0.6s-1,7.3-1.1,9.1s-0.2,8.2-0.1,9.8c0.2,1.7,0.9,3.4,2.1,4.7c1.2,0.6,2.5,1,3.8,1.1c1.8-0.2,3.5-0.7,5.2-1.5
	c1.4-0.7,4-2.2,8.6-9.1s7.6-14,8.4-17.1c0.8-4.8,0.8-9.6,0-14.4c-0.9-3.2-2-6.3-3.2-9.3c-2.7-4.4-4.4-4.7-5.5-5.2s-0.8-0.7-2.1-0.2
	s-4.3,3.4-4.3,3.4l-5.6,8.1l-3.2,9.8c0,0-2.2,8.2-2.9,10.5s-14-0.5-14-0.5l-0.2-7.9L267.5,107.9L267.5,107.9z"/>
</svg>
