<svg id="Laag_1" data-name="Laag 1" xmlns="http://www.w3.org/2000/svg" viewBox="0 0 564.38 304.19"><defs><style>.cls-1{fill:#e52828;}</style></defs><title>Logo_red_text</title><path class="cls-1" d="M6.88,64s6.71,10.62,7.25,11.5,7,11,7,11,20.54-3.21,20.75-3,1.62,21.12,1.75,24.5.71,22.66.5,23a120.14,120.14,0,0,1-11,6c-3.17,1.45-5.08,2.2-13.25,4L6.13,144s8,6.2,10.5,8,8.25,5.25,8.25,5.25l21.5.25s.33,9.62.75,15.25c.16,3.41.75,11.54,1,14.5s1.5,11.25,1.5,11.25,5.37,4.2,6.25,5,8,7.5,8,7.5-3.25-14.88-3.75-23-.75-15.63-.75-18.75a98.5,98.5,0,0,1,1-14.5c0-.46.46-2.46.75-2.5s7.91-3.38,10.75-5,4.71-3.17,7-4.75,3.87-2.84,6-4.5,4.29-3.46,4.5-3.5-3.75-12.38-3.75-11.75-7,1.83-7.75,2-6.75,1.91-8,2a58.5,58.5,0,0,1-6.5,0c-1.79-.17-.54-7.79-.25-15.75s.5-17,.5-17,.41-8.71.5-9.75a11.63,11.63,0,0,1,1.5-4.5c.66-.75.21-.67,7-2.5a125.87,125.87,0,0,1,18.5-3c2.29-.21,17-1,19.5-1.25s21.54-1.13,23.75-1.25,6.91-.17,6.75-1.25a18.78,18.78,0,0,1-.25-4.5c.21-.75,3.25-4.09,3.25-5s-3.59-2.79-5.75-4-8.46-2.92-12.75-3.5-13.46-1-20-1.25-15.67-.38-18.5.25c-2,.29-26.5,2.25-26.5,2.25s.33-5.5-.25-6-15.67,1.58-16.25,1.75a5.56,5.56,0,0,1-2,0,12.05,12.05,0,0,1-1.75-1s.33,5.08.25,5.25,0,1.5-1,1.25-11.25,1.75-16.5,3S6.88,64,6.88,64" transform="translate(-6.13 -6.21)"/><path class="cls-1" d="M6.88,64s6.71,10.62,7.25,11.5,7,11,7,11,20.54-3.21,20.75-3,1.62,21.12,1.75,24.5.71,22.66.5,23a120.14,120.14,0,0,1-11,6c-3.17,1.45-5.08,2.2-13.25,4L6.13,144s8,6.2,10.5,8,8.25,5.25,8.25,5.25l21.5.25s.33,9.62.75,15.25c.16,3.41.75,11.54,1,14.5s1.5,11.25,1.5,11.25,5.37,4.2,6.25,5,8,7.5,8,7.5-3.25-14.88-3.75-23-.75-15.63-.75-18.75a98.5,98.5,0,0,1,1-14.5c0-.46.46-2.46.75-2.5s7.91-3.38,10.75-5,4.71-3.17,7-4.75,3.87-2.84,6-4.5,4.29-3.46,4.5-3.5-3.75-12.38-3.75-11.75-7,1.83-7.75,2-6.75,1.91-8,2a58.5,58.5,0,0,1-6.5,0c-1.79-.17-.54-7.79-.25-15.75s.5-17,.5-17,.41-8.71.5-9.75a11.63,11.63,0,0,1,1.5-4.5c.66-.75.21-.67,7-2.5a125.87,125.87,0,0,1,18.5-3c2.29-.21,17-1,19.5-1.25s21.54-1.13,23.75-1.25,6.91-.17,6.75-1.25a18.78,18.78,0,0,1-.25-4.5c.21-.75,3.25-4.09,3.25-5s-3.59-2.79-5.75-4-8.46-2.92-12.75-3.5-13.46-1-20-1.25-15.67-.38-18.5.25c-2,.29-26.5,2.25-26.5,2.25s.33-5.5-.25-6-15.67,1.58-16.25,1.75a5.56,5.56,0,0,1-2,0,12.05,12.05,0,0,1-1.75-1s.33,5.08.25,5.25,0,1.5-1,1.25-11.25,1.75-16.5,3S6.88,64,6.88,64Z" transform="translate(-6.13 -6.21)"/><path class="cls-1" d="M166.13,43.7a12.28,12.28,0,0,0,.33,3.84c.5,1.5,1.17,2.5,3.67,7s5.33,9.91,6.33,11.33A5.45,5.45,0,0,0,178.8,68c.91.5.24.5,2.83,1s26.33-.75,26.67-.67a1,1,0,0,1,.83.67c.17.5-1.42,16.91-1.67,24.16S206.3,118,206.3,125.37s-.26,45.08-.17,46.33,0,.42.5,1.67a11.83,11.83,0,0,0,2,3.17c.92,1.16,8.16,12.16,8.5,12.66s1.42,1.84,1.83,2.34a5.76,5.76,0,0,0,1.34,1,2.42,2.42,0,0,0,.33-1c.08-.67.41-4.59.5-7.17a20.33,20.33,0,0,0,0-4c-.17-1-1.34-4.83-1-4s-1-2.92-1.5-4.33-.92-2.25-1-2.67.08.25,0-2.17.08-23.41,0-25.33-.17-.67.17-1.5,1.16-4.09,1.66-6.17,2.92-15.08,4-21S226,97.54,227,92.87s2.42-13.67,2.5-14.83a14.92,14.92,0,0,0,0-3.84c-.25-.91-.67-1.41-1-2.33a22.47,22.47,0,0,0-1-2.83c-.5-1-1.08-1.42-1.17-2s-.16-.75,0-1.17a5,5,0,0,1,.84-1.17,6.85,6.85,0,0,1,1.33-1,12.52,12.52,0,0,1,3.33-1.83c1.17-.33,5.17-1.33,6.5-1.5s4.5-.33,7.67-.5,3.75-.17,5.17-.33a17,17,0,0,0,4.5-1.34c1-.5,2.25-.83,2.83-1.16a6.56,6.56,0,0,0,1.34-1l.66-.67V49s-2.08-.34-3.33-.5-3.42-.25-5-.5-2.59-.42-4.5-.67-4.58-.58-6.17-.83-3.25-.25-6-.84-5.25-1.08-6.83-1.5-3.25-.66-3.67-.83a3,3,0,0,1-1.5-1,8.8,8.8,0,0,1-1-2.5,28.14,28.14,0,0,0-1.5-3.33c-.75-1.34-1.5-2.17-2-3s-2.17-3.09-2.83-4S212,24.7,212,24.7s-.91-.75-1.33-.49-.58.33-.67.66,0,.17,0,1.17-.5,2.5-.66,4.5-.34,11-.34,12.33-.16.84-.16.84a8.37,8.37,0,0,0-1.84,0c-1.41.08-4.91.58-7.66.66s-2.75-.33-4.84,0a59.23,59.23,0,0,1-6.66.84c-2.76.16-4.51.33-6.67.33s-4.34-.25-6.17-.33a40.08,40.08,0,0,1-6-1c-1-.25-2.83-.49-2.83-.49" transform="translate(-6.13 -6.21)"/><path class="cls-1" d="M166.13,43.7a12.28,12.28,0,0,0,.33,3.84c.5,1.5,1.17,2.5,3.67,7s5.33,9.91,6.33,11.33A5.45,5.45,0,0,0,178.8,68c.91.5.24.5,2.83,1s26.33-.75,26.67-.67a1,1,0,0,1,.83.67c.17.5-1.42,16.91-1.67,24.16S206.3,118,206.3,125.37s-.26,45.08-.17,46.33,0,.42.5,1.67a11.83,11.83,0,0,0,2,3.17c.92,1.16,8.16,12.16,8.5,12.66s1.42,1.84,1.83,2.34a5.76,5.76,0,0,0,1.34,1,2.42,2.42,0,0,0,.33-1c.08-.67.41-4.59.5-7.17a20.33,20.33,0,0,0,0-4c-.17-1-1.34-4.83-1-4s-1-2.92-1.5-4.33-.92-2.25-1-2.67.08.25,0-2.17.08-23.41,0-25.33-.17-.67.17-1.5,1.16-4.09,1.66-6.17,2.92-15.08,4-21S226,97.54,227,92.87s2.42-13.67,2.5-14.83a14.92,14.92,0,0,0,0-3.84c-.25-.91-.67-1.41-1-2.33a22.47,22.47,0,0,0-1-2.83c-.5-1-1.08-1.42-1.17-2s-.16-.75,0-1.17a5,5,0,0,1,.84-1.17,6.85,6.85,0,0,1,1.33-1,12.52,12.52,0,0,1,3.33-1.83c1.17-.33,5.17-1.33,6.5-1.5s4.5-.33,7.67-.5,3.75-.17,5.17-.33a17,17,0,0,0,4.5-1.34c1-.5,2.25-.83,2.83-1.16a6.56,6.56,0,0,0,1.34-1l.66-.67V49s-2.08-.34-3.33-.5-3.42-.25-5-.5-2.59-.42-4.5-.67-4.58-.58-6.17-.83-3.25-.25-6-.84-5.25-1.08-6.83-1.5-3.25-.66-3.67-.83a3,3,0,0,1-1.5-1,8.8,8.8,0,0,1-1-2.5,28.14,28.14,0,0,0-1.5-3.33c-.75-1.34-1.5-2.17-2-3s-2.17-3.09-2.83-4S212,24.7,212,24.7s-.91-.75-1.33-.49-.58.33-.67.66,0,.17,0,1.17-.5,2.5-.66,4.5-.34,11-.34,12.33-.16.84-.16.84a8.37,8.37,0,0,0-1.84,0c-1.41.08-4.91.58-7.66.66s-2.75-.33-4.84,0a59.23,59.23,0,0,1-6.66.84c-2.76.16-4.51.33-6.67.33s-4.34-.25-6.17-.33a40.08,40.08,0,0,1-6-1c-1-.25-2.83-.49-2.83-.49Z" transform="translate(-6.13 -6.21)"/><path class="cls-1" d="M270,6.37c-.5.33-2.67,10.58-3.33,14s-3,17.25-3.34,21.67-1.41,26.16-1.66,29.66S260.54,85.79,260.29,93s-.41,17.5-.33,27,.83,21.08,1.34,33,1.33,28.08,1.66,34.33,2.09,20.42,2.33,23,5.09,24.08,5.34,25A8.91,8.91,0,0,0,272,238a.63.63,0,0,0,1,0c.25-.34.42-3.67.33-6s-.58-18.59-.66-23.67.25-13.17.33-21-.17-25.08,0-36.67.67-21,.67-21a1.88,1.88,0,0,1,1,1c.41.84.66-15.66.66-15.66s-1.16.58-1.33.33.17-3.08,0-9,0-40,0-51V30c0-3.25-.25-7.5-.67-11.67A55.15,55.15,0,0,0,272,10.7c-.5-2.58-.58-3.58-.67-4S270.46,6,270,6.37" transform="translate(-6.13 -6.21)"/><path class="cls-1" d="M270,6.37c-.5.33-2.67,10.58-3.33,14s-3,17.25-3.34,21.67-1.41,26.16-1.66,29.66S260.54,85.79,260.29,93s-.41,17.5-.33,27,.83,21.08,1.34,33,1.33,28.08,1.66,34.33,2.09,20.42,2.33,23,5.09,24.08,5.34,25A8.91,8.91,0,0,0,272,238a.63.63,0,0,0,1,0c.25-.34.42-3.67.33-6s-.58-18.59-.66-23.67.25-13.17.33-21-.17-25.08,0-36.67.67-21,.67-21a1.88,1.88,0,0,1,1,1c.41.84.66-15.66.66-15.66s-1.16.58-1.33.33.17-3.08,0-9,0-40,0-51V30c0-3.25-.25-7.5-.67-11.67A55.15,55.15,0,0,0,272,10.7c-.5-2.58-.58-3.58-.67-4S270.46,6,270,6.37Z" transform="translate(-6.13 -6.21)"/><path class="cls-1" d="M353.8,61.2a5.26,5.26,0,0,1-.17,1.5c-.19.46-1,1-1.83,1.67a31.74,31.74,0,0,0-3,3.5c-.67.85-2.23,3.08-3.17,4.5a31.4,31.4,0,0,0-2.83,6.33c-.8,2.34-1.59,6.07-2,7.67a60.06,60.06,0,0,0-1,6c-.11.92-.11,3.35-.17,5.16a28.65,28.65,0,0,0,.5,6.67c.5,2.33,1.19,4.33,1.5,5.33s1.12,3.92,1.5,5.34.67,2.29,1.33,4.16a25.31,25.31,0,0,0,2.84,5.17c1.27,2,2.81,4.5,3.66,5.67a20.62,20.62,0,0,0,4,4c.79.35,2.44,1.21,2.84,2a9.87,9.87,0,0,0,1.83,2.16c.44.44,1,.44,1.83.5a9.2,9.2,0,0,0,2.5-.33,7.07,7.07,0,0,0,2.84-1,31.26,31.26,0,0,0,3.5-3.5,17.18,17.18,0,0,0,2-2.67,39.43,39.43,0,0,0,2-4.16,33.46,33.46,0,0,0,1.5-4.34,25.39,25.39,0,0,0,.83-4.5,42.88,42.88,0,0,0,.33-6.16c0-2-.33-4-.33-4.34s-.92-1.25-.83-1-.15-.77,0-1.16.46-.4.83-.84,1.17-2,1.83-3a14.73,14.73,0,0,0,1.84-2.83c.58-1.35.83-2.75,1.33-4.33a31.46,31.46,0,0,0,1.17-4.17c.21-1.29.56-2.77.66-3.5a17.5,17.5,0,0,0,.17-3c0-1.67-.5-1.67-.83-3.17a15.24,15.24,0,0,0-1.34-3.5c-.66-1.5-2-2.33-3.33-3.66a39.7,39.7,0,0,0-6-4.48c-2.15-1.38-7.77,11.56-6.39,12.44.37.58.29.45.54.83.46.25,1,.12,1,1a35.18,35.18,0,0,1,0,6.25c-.13,1.67-.34,3.38-.59,4.79s-.41,1.88-.58,3.33a38.29,38.29,0,0,1-.67,4.34,77.4,77.4,0,0,1-2.54,8.12,18.58,18.58,0,0,1-2.41,2.67c-.67.79-1.88,2.25-2.07,2.56-.6.85-.52.85-.93.31a3.73,3.73,0,0,1-.82-1.75c-.39-1.25-.39-12.83-.23-15.37s.05-5.59.17-7.25.58-1.46,1.17-1.75.7-.75.83-1.5A34.48,34.48,0,0,1,361.88,82a15,15,0,0,1,1.75-2.21c1-1-.17-.16,1,.34.21.25.62.62.91,1,2.46,1.87,8.2-11,6.55-12.23s-7.24-4.42-7.75-4.65c-3-1.33-7.5-2.83-6.34-2.5s-1-.48-1.33-.33a16.49,16.49,0,0,1-2.83-.17" transform="translate(-6.13 -6.21)"/><path class="cls-1" d="M353.8,61.2a5.26,5.26,0,0,1-.17,1.5c-.19.46-1,1-1.83,1.67a31.74,31.74,0,0,0-3,3.5c-.67.85-2.23,3.08-3.17,4.5a31.4,31.4,0,0,0-2.83,6.33c-.8,2.34-1.59,6.07-2,7.67a60.06,60.06,0,0,0-1,6c-.11.92-.11,3.35-.17,5.16a28.65,28.65,0,0,0,.5,6.67c.5,2.33,1.19,4.33,1.5,5.33s1.12,3.92,1.5,5.34.67,2.29,1.33,4.16a25.31,25.31,0,0,0,2.84,5.17c1.27,2,2.81,4.5,3.66,5.67a20.62,20.62,0,0,0,4,4c.79.35,2.44,1.21,2.84,2a9.87,9.87,0,0,0,1.83,2.16c.44.44,1,.44,1.83.5a9.2,9.2,0,0,0,2.5-.33,7.07,7.07,0,0,0,2.84-1,31.26,31.26,0,0,0,3.5-3.5,17.18,17.18,0,0,0,2-2.67,39.43,39.43,0,0,0,2-4.16,33.46,33.46,0,0,0,1.5-4.34,25.39,25.39,0,0,0,.83-4.5,42.88,42.88,0,0,0,.33-6.16c0-2-.33-4-.33-4.34s-.92-1.25-.83-1-.15-.77,0-1.16.46-.4.83-.84,1.17-2,1.83-3a14.73,14.73,0,0,0,1.84-2.83c.58-1.35.83-2.75,1.33-4.33a31.46,31.46,0,0,0,1.17-4.17c.21-1.29.56-2.77.66-3.5a17.5,17.5,0,0,0,.17-3c0-1.67-.5-1.67-.83-3.17a15.24,15.24,0,0,0-1.34-3.5c-.66-1.5-2-2.33-3.33-3.66a39.7,39.7,0,0,0-6-4.48c-2.15-1.38-7.77,11.56-6.39,12.44.37.58.29.45.54.83.46.25,1,.12,1,1a35.18,35.18,0,0,1,0,6.25c-.13,1.67-.34,3.38-.59,4.79s-.41,1.88-.58,3.33a38.29,38.29,0,0,1-.67,4.34,77.4,77.4,0,0,1-2.54,8.12,18.58,18.58,0,0,1-2.41,2.67c-.67.79-1.88,2.25-2.07,2.56-.6.85-.52.85-.93.31a3.73,3.73,0,0,1-.82-1.75c-.39-1.25-.39-12.83-.23-15.37s.05-5.59.17-7.25.58-1.46,1.17-1.75.7-.75.83-1.5A34.48,34.48,0,0,1,361.88,82a15,15,0,0,1,1.75-2.21c1-1-.17-.16,1,.34.21.25.62.62.91,1,2.46,1.87,8.2-11,6.55-12.23s-7.24-4.42-7.75-4.65c-3-1.33-7.5-2.83-6.34-2.5s-1-.48-1.33-.33a16.49,16.49,0,0,1-2.83-.17Z" transform="translate(-6.13 -6.21)"/><path class="cls-1" d="M423.13,37.54a5.25,5.25,0,0,0,.25-3.25c-.38-1-2.19-2.13-2.75-2.5a40.22,40.22,0,0,0-3.75-2.5c-1.5-.82-5.75-1.82-7-2.25s-6.06-2.57-7.75-2.75a61.9,61.9,0,0,0-7.75.25,17.09,17.09,0,0,0-4.75,1.5c-1.56.62-6,2.06-7,2.5s-4.81,2.56-5.5,3a5.73,5.73,0,0,0-2,2.5,9.18,9.18,0,0,0,.25,2.75,10.83,10.83,0,0,0,1.25,3.5c.87,1.87,6.69,11.12,8.75,14.5s10.12,16.43,13,21.75,9.69,20.06,11.25,23.5,5.87,18.18,6.75,20.5a56.2,56.2,0,0,1,2.25,9c.19,1.68,0,5.87,0,8a50,50,0,0,1-.75,7.75,104.42,104.42,0,0,1-2.5,13,79.5,79.5,0,0,1-5,13c-1,1.93-4.06,7.56-5,9a22.22,22.22,0,0,1-3.5,4,37,37,0,0,1-3.5,2.75c-1.25.87-5.75,3.68-6.75,4.25a17.41,17.41,0,0,1-6.5,2c-3.13.31-8.5.75-10,.5a22.73,22.73,0,0,1-4.25-1.5c-.63-.25-4.94-2-6-2.5a23,23,0,0,1-3.75-2.5,15.82,15.82,0,0,1-2.75-3c-1.44-1.94-2.19-3.25-3-4.5a10.12,10.12,0,0,1-1.5-3.75c-.25-1.32,0-1.82.5-3.25S358,160.6,358.63,159a44.66,44.66,0,0,0,1.75-7.25c.12-1.32.06-3.07-.5-3a86.75,86.75,0,0,0-8.75,4C348.8,154,344,159,342.88,161a43.53,43.53,0,0,0-2.5,5.75,31.41,31.41,0,0,0-1.5,5.5,9.6,9.6,0,0,0,.5,4c.5,1.18,1.19,2.25,2,3.75a15,15,0,0,0,2.5,3.25,38.73,38.73,0,0,0,3.75,4.25,5.82,5.82,0,0,1,2.25,2.75,34.88,34.88,0,0,0,2,4.5,20.05,20.05,0,0,0,2.75,4.25c1.06,1.37,4,5.25,5.25,6.75a31.09,31.09,0,0,0,5.5,5,46.6,46.6,0,0,0,6.5,3.75,38.67,38.67,0,0,0,7.75,2.75c2.06.37,13.81.81,15,.25a12.38,12.38,0,0,1,3.5-1.5c1.44-.25,6.56-3.25,7.5-3.75s3.44-1.57,4.75-2.25,3.31-2.82,4.5-4a40.65,40.65,0,0,0,4-5.25,47.13,47.13,0,0,0,3.25-6,119.69,119.69,0,0,0,4.75-12,52.54,52.54,0,0,0,2.5-10.5c.62-4.63.44-6.25.75-10.5s.5-8.69.5-11.75-.44-10.25-.75-14.5-1.81-13.5-2.25-15.5a75,75,0,0,0-2.25-8.75c-1.56-5-2.69-8.69-4.25-13.25a123.54,123.54,0,0,0-5.75-15c-3.06-6.57-5.44-10.82-8.25-15.75s-2.69-5.32-4.75-8.75a36.08,36.08,0,0,0-4-5.5c-.63-.82-1.75-1.88-2.5-2.75s-1-1.19-1.75-2a8.52,8.52,0,0,1-1-1.25,16,16,0,0,1,.5-1.75c.31-.88,1.31-1.44,2-2.25a7.34,7.34,0,0,1,3-2.25,30.08,30.08,0,0,1,4.5-1.25c1-.13,3.81,0,4.75,0s2.37-.13,5.25,0,5.75.43,6.25.5a2.29,2.29,0,0,0,1.5-.25,4.76,4.76,0,0,0,1.25-1,2.74,2.74,0,0,0,1-1.25" transform="translate(-6.13 -6.21)"/><path class="cls-1" d="M423.13,37.54a5.25,5.25,0,0,0,.25-3.25c-.38-1-2.19-2.13-2.75-2.5a40.22,40.22,0,0,0-3.75-2.5c-1.5-.82-5.75-1.82-7-2.25s-6.06-2.57-7.75-2.75a61.9,61.9,0,0,0-7.75.25,17.09,17.09,0,0,0-4.75,1.5c-1.56.62-6,2.06-7,2.5s-4.81,2.56-5.5,3a5.73,5.73,0,0,0-2,2.5,9.18,9.18,0,0,0,.25,2.75,10.83,10.83,0,0,0,1.25,3.5c.87,1.87,6.69,11.12,8.75,14.5s10.12,16.43,13,21.75,9.69,20.06,11.25,23.5,5.87,18.18,6.75,20.5a56.2,56.2,0,0,1,2.25,9c.19,1.68,0,5.87,0,8a50,50,0,0,1-.75,7.75,104.42,104.42,0,0,1-2.5,13,79.5,79.5,0,0,1-5,13c-1,1.93-4.06,7.56-5,9a22.22,22.22,0,0,1-3.5,4,37,37,0,0,1-3.5,2.75c-1.25.87-5.75,3.68-6.75,4.25a17.41,17.41,0,0,1-6.5,2c-3.13.31-8.5.75-10,.5a22.73,22.73,0,0,1-4.25-1.5c-.63-.25-4.94-2-6-2.5a23,23,0,0,1-3.75-2.5,15.82,15.82,0,0,1-2.75-3c-1.44-1.94-2.19-3.25-3-4.5a10.12,10.12,0,0,1-1.5-3.75c-.25-1.32,0-1.82.5-3.25S358,160.6,358.63,159a44.66,44.66,0,0,0,1.75-7.25c.12-1.32.06-3.07-.5-3a86.75,86.75,0,0,0-8.75,4C348.8,154,344,159,342.88,161a43.53,43.53,0,0,0-2.5,5.75,31.41,31.41,0,0,0-1.5,5.5,9.6,9.6,0,0,0,.5,4c.5,1.18,1.19,2.25,2,3.75a15,15,0,0,0,2.5,3.25,38.73,38.73,0,0,0,3.75,4.25,5.82,5.82,0,0,1,2.25,2.75,34.88,34.88,0,0,0,2,4.5,20.05,20.05,0,0,0,2.75,4.25c1.06,1.37,4,5.25,5.25,6.75a31.09,31.09,0,0,0,5.5,5,46.6,46.6,0,0,0,6.5,3.75,38.67,38.67,0,0,0,7.75,2.75c2.06.37,13.81.81,15,.25a12.38,12.38,0,0,1,3.5-1.5c1.44-.25,6.56-3.25,7.5-3.75s3.44-1.57,4.75-2.25,3.31-2.82,4.5-4a40.65,40.65,0,0,0,4-5.25,47.13,47.13,0,0,0,3.25-6,119.69,119.69,0,0,0,4.75-12,52.54,52.54,0,0,0,2.5-10.5c.62-4.63.44-6.25.75-10.5s.5-8.69.5-11.75-.44-10.25-.75-14.5-1.81-13.5-2.25-15.5a75,75,0,0,0-2.25-8.75c-1.56-5-2.69-8.69-4.25-13.25a123.54,123.54,0,0,0-5.75-15c-3.06-6.57-5.44-10.82-8.25-15.75s-2.69-5.32-4.75-8.75a36.08,36.08,0,0,0-4-5.5c-.63-.82-1.75-1.88-2.5-2.75s-1-1.19-1.75-2a8.52,8.52,0,0,1-1-1.25,16,16,0,0,1,.5-1.75c.31-.88,1.31-1.44,2-2.25a7.34,7.34,0,0,1,3-2.25,30.08,30.08,0,0,1,4.5-1.25c1-.13,3.81,0,4.75,0s2.37-.13,5.25,0,5.75.43,6.25.5a2.29,2.29,0,0,0,1.5-.25,4.76,4.76,0,0,0,1.25-1,2.74,2.74,0,0,0,1-1.25Z" transform="translate(-6.13 -6.21)"/><path class="cls-1" d="M427.46,78.37S434.52,89,434.8,89.7s1,4.77,1.33,6.34a64.71,64.71,0,0,0,1.83,6.5c.73,2.18,2.19,5.08,2.84,6.66a70.68,70.68,0,0,0,3.5,7.5c1,1.65,4.33,6.52,5.33,7.84a36.62,36.62,0,0,0,6,6.5,43.52,43.52,0,0,0,13.83,8,33.09,33.09,0,0,0,7.17,1.5c1.31.18,4,.43,5,.5a11.91,11.91,0,0,0,4.5-.84c1.75-.66,4.27-2.08,6.17-3a30.49,30.49,0,0,0,6.5-4.5c2.14-1.91,10.18-8.66,10.66-8.66a3.46,3.46,0,0,0,1.84-.84c.89-.6,4.71-5.25,5.33-5.83s4.33-3.92,4.67-4.5a2.93,2.93,0,0,0,.16-1.67,7.73,7.73,0,0,0-.5-2,3.66,3.66,0,0,0-1-1.16c-.46-.44-1.1-.67-2-1.34a4.45,4.45,0,0,0-2.33-.83c-.63-.08-5.52-.19-7.67-.17s-7.14.21-8.33.34a40,40,0,0,0-4,.83,8,8,0,0,0-1.67.67s0,1.62,0,2.5-.93,2.2-2.16,3.16a24.37,24.37,0,0,1-4.17,2.34c-.94.43-3.14,1.41-4.17,1.83s-1.1.37-5,1.33a20.61,20.61,0,0,1-8.16.67c-1.73-.27-2-.73-4.84-2a37.07,37.07,0,0,1-8.5-5.67,47.45,47.45,0,0,1-3-3.83,34.43,34.43,0,0,1-3.33-5,25.22,25.22,0,0,1-2-6.33c-.19-1.32-.14-3.63-.17-4s.65-.55,1-.84a3.77,3.77,0,0,1,1.84-.5c.89-.1,5.54.11,7,0s4.37-.48,8.16-1.16S476,88.1,478,87.54a50.35,50.35,0,0,0,6.67-2.67c1.56-.77,4.9-2.23,6.17-3a26.25,26.25,0,0,0,4.16-4c.67-.77,2.8-2.79,3.67-4A19.49,19.49,0,0,0,500.46,70a11.78,11.78,0,0,0,1.17-3.67,39.52,39.52,0,0,0,0-6.17,34.44,34.44,0,0,0-1-6.33c-.44-1.71-1.25-4.77-1.5-5.83A12.44,12.44,0,0,0,497,43a9.32,9.32,0,0,0-3.16-2.34,29.31,29.31,0,0,0-4.34-2,43.43,43.43,0,0,0-4.66-1.16c-1.86-.44-8-2-9.17-2s-3.67.16-3.67.16-2.25,0-3.66.17A11.73,11.73,0,0,0,464.63,37c-1.06.5-5.29,2.46-6.33,3.16A42.48,42.48,0,0,0,454,43.71c-1,.95-3.64,4.08-4.33,4.83a39.35,39.35,0,0,0-3,3.66c-1.13,1.59-1.92,2.87-2.5,3.67-2.37,4.18,12.52,11.54,14.27,9.95,1.28-1.11,1.28-1.14,3-2.62,3.17-2.24,8.13-4.33,14.8-6.75a15,15,0,0,1,3-.69c1.28-.17,7.52-.74,7.89-.29a2.46,2.46,0,0,1,.65,1.7,11,11,0,0,1-1.5,3.93A25,25,0,0,1,482.31,65c-1.5,1.35-4,3.62-10.87,6.94a61.74,61.74,0,0,1-8.32,2.55,46.74,46.74,0,0,1-10.93,1.45c0-.21,0,.42,0-.7a11.81,11.81,0,0,1,2.19-5.53A31.85,31.85,0,0,1,458.24,66c7.14-12-11.63-14.88-14.32-9.77-1.11,2.16-3,6.25-4,8a51.57,51.57,0,0,0-2.83,6.51c-.56,1.52-1.27,4.2-1.67,5.33a16.25,16.25,0,0,1-.66,2.33c-.29.36.16.07-.5.34s-6.84-.34-6.84-.34" transform="translate(-6.13 -6.21)"/><path class="cls-1" d="M427.46,78.37S434.52,89,434.8,89.7s1,4.77,1.33,6.34a64.71,64.71,0,0,0,1.83,6.5c.73,2.18,2.19,5.08,2.84,6.66a70.68,70.68,0,0,0,3.5,7.5c1,1.65,4.33,6.52,5.33,7.84a36.62,36.62,0,0,0,6,6.5,43.52,43.52,0,0,0,13.83,8,33.09,33.09,0,0,0,7.17,1.5c1.31.18,4,.43,5,.5a11.91,11.91,0,0,0,4.5-.84c1.75-.66,4.27-2.08,6.17-3a30.49,30.49,0,0,0,6.5-4.5c2.14-1.91,10.18-8.66,10.66-8.66a3.46,3.46,0,0,0,1.84-.84c.89-.6,4.71-5.25,5.33-5.83s4.33-3.92,4.67-4.5a2.93,2.93,0,0,0,.16-1.67,7.73,7.73,0,0,0-.5-2,3.66,3.66,0,0,0-1-1.16c-.46-.44-1.1-.67-2-1.34a4.45,4.45,0,0,0-2.33-.83c-.63-.08-5.52-.19-7.67-.17s-7.14.21-8.33.34a40,40,0,0,0-4,.83,8,8,0,0,0-1.67.67s0,1.62,0,2.5-.93,2.2-2.16,3.16a24.37,24.37,0,0,1-4.17,2.34c-.94.43-3.14,1.41-4.17,1.83s-1.1.37-5,1.33a20.61,20.61,0,0,1-8.16.67c-1.73-.27-2-.73-4.84-2a37.07,37.07,0,0,1-8.5-5.67,47.45,47.45,0,0,1-3-3.83,34.43,34.43,0,0,1-3.33-5,25.22,25.22,0,0,1-2-6.33c-.19-1.32-.14-3.63-.17-4s.65-.55,1-.84a3.77,3.77,0,0,1,1.84-.5c.89-.1,5.54.11,7,0s4.37-.48,8.16-1.16S476,88.1,478,87.54a50.35,50.35,0,0,0,6.67-2.67c1.56-.77,4.9-2.23,6.17-3a26.25,26.25,0,0,0,4.16-4c.67-.77,2.8-2.79,3.67-4A19.49,19.49,0,0,0,500.46,70a11.78,11.78,0,0,0,1.17-3.67,39.52,39.52,0,0,0,0-6.17,34.44,34.44,0,0,0-1-6.33c-.44-1.71-1.25-4.77-1.5-5.83A12.44,12.44,0,0,0,497,43a9.32,9.32,0,0,0-3.16-2.34,29.31,29.31,0,0,0-4.34-2,43.43,43.43,0,0,0-4.66-1.16c-1.86-.44-8-2-9.17-2s-3.67.16-3.67.16-2.25,0-3.66.17A11.73,11.73,0,0,0,464.63,37c-1.06.5-5.29,2.46-6.33,3.16A42.48,42.48,0,0,0,454,43.71c-1,.95-3.64,4.08-4.33,4.83a39.35,39.35,0,0,0-3,3.66c-1.13,1.59-1.92,2.87-2.5,3.67-2.37,4.18,12.52,11.54,14.27,9.95,1.28-1.11,1.28-1.14,3-2.62,3.17-2.24,8.13-4.33,14.8-6.75a15,15,0,0,1,3-.69c1.28-.17,7.52-.74,7.89-.29a2.46,2.46,0,0,1,.65,1.7,11,11,0,0,1-1.5,3.93A25,25,0,0,1,482.31,65c-1.5,1.35-4,3.62-10.87,6.94a61.74,61.74,0,0,1-8.32,2.55,46.74,46.74,0,0,1-10.93,1.45c0-.21,0,.42,0-.7a11.81,11.81,0,0,1,2.19-5.53A31.85,31.85,0,0,1,458.24,66c7.14-12-11.63-14.88-14.32-9.77-1.11,2.16-3,6.25-4,8a51.57,51.57,0,0,0-2.83,6.51c-.56,1.52-1.27,4.2-1.67,5.33a16.25,16.25,0,0,1-.66,2.33c-.29.36.16.07-.5.34s-6.84-.34-6.84-.34Z" transform="translate(-6.13 -6.21)"/><path class="cls-1" d="M85.76,123.39c-.22-3-.38.73-.13-4.6s.5-7.11,2.21-12,1.18-3.31,3.36-7.38,10.4-10.78,10.87-11.13,1.35-.16,1-.26,9,4.47,11.27,7.74,7.11,13.23,7.89,15.56a12,12,0,0,0,2.58,4.14l.13,6.73-1,11L121.75,144a34,34,0,0,1-5.18,6.08c-2.72,2.33-7.77,4.53-8.8,5.31s-1,.51-2.2,0c-2.72-1-14.37-16.57-16.31-20.46s-2.85-6.08-2.85-6.08S98.24,125,98.32,126.3s.75,4.3,1,4.46c.83.85,3.34-3,3.75-3.88s3.41-6.46,3.88-10.49a13.35,13.35,0,0,0-.51-6.73,17.92,17.92,0,0,0-3.87-6.56c-1.06-1-3.29-1.53-3.47-1.26s-.74,23.47-.82,24.26-11.91,2.72-11.91,2.72-.43-2.42-.64-5.44" transform="translate(-6.13 -6.21)"/><path class="cls-1" d="M85.76,123.39c-.22-3-.38.73-.13-4.6s.5-7.11,2.21-12,1.18-3.31,3.36-7.38,10.4-10.78,10.87-11.13,1.35-.16,1-.26,9,4.47,11.27,7.74,7.11,13.23,7.89,15.56a12,12,0,0,0,2.58,4.14l.13,6.73-1,11L121.75,144a34,34,0,0,1-5.18,6.08c-2.72,2.33-7.77,4.53-8.8,5.31s-1,.51-2.2,0c-2.72-1-14.37-16.57-16.31-20.46s-2.85-6.08-2.85-6.08S98.24,125,98.32,126.3s.75,4.3,1,4.46c.83.85,3.34-3,3.75-3.88s3.41-6.46,3.88-10.49a13.35,13.35,0,0,0-.51-6.73,17.92,17.92,0,0,0-3.87-6.56c-1.06-1-3.29-1.53-3.47-1.26s-.74,23.47-.82,24.26-11.91,2.72-11.91,2.72-.43-2.42-.64-5.44Z" transform="translate(-6.13 -6.21)"/><path class="cls-1" d="M117.13,116.16s1.25-1,5.62-4.87c4.21-4.25,19.8-25.59,27.13-32,1.25-.92,1.5-.84,2.25-1.5s.33-1.09-.13-1.75-8.54-6.88-8.54-6.88.67-.12,2.54-.5,1.3-.29,5.5-.87c6.55-.5,17,2.83,21.25,4.5s20.63,14.5,27.25,29.12c2.63,6.29,5.05,10.38,4.88,12.38s-5.67,15.25-8.25,19.5a109.57,109.57,0,0,1-3.13,16.62c-1.29,4.29-5,12.87-5.62,13.38s-4.33,9.33-5.5,11.5-7.17,7.41-12.5,8.87a76.37,76.37,0,0,1-12.37,2.63c-3.38.33-11,.16-14.88-3.5s-6-5.59-7.12-7.5a43.22,43.22,0,0,0-4.13-5.75c-1.42-1.67-12.75-16.84-14.5-19.63a33.32,33.32,0,0,0-3.4-4.88c-2.76-3.66,22-3.34,22-.71a49,49,0,0,0,.92,9.34c.67,3.13,1.5,6,2.25,6.88s1.92,1.75,4.63,2,5.37-.34,9.62-1.75c6.17-1.42,9.75-4.09,13.25-8.88s5.84-7.46,7.5-12a99,99,0,0,0,4.25-20.12c.83-7.42-2.33-15.92-3.12-18.38s-2-5.46-3.25-6.63A6.75,6.75,0,0,1,169,90.53a5.69,5.69,0,0,1-.7,2.63c-.38,2.21-5.63,3-8.38,4.87s-11.33,8.5-15.25,14.88-4.66,7.62-6.75,14-2.46,17.24-2.46,17.24l-22.11.68,3.82-28.67" transform="translate(-6.13 -6.21)"/><path class="cls-1" d="M117.13,116.16s1.25-1,5.62-4.87c4.21-4.25,19.8-25.59,27.13-32,1.25-.92,1.5-.84,2.25-1.5s.33-1.09-.13-1.75-8.54-6.88-8.54-6.88.67-.12,2.54-.5,1.3-.29,5.5-.87c6.55-.5,17,2.83,21.25,4.5s20.63,14.5,27.25,29.12c2.63,6.29,5.05,10.38,4.88,12.38s-5.67,15.25-8.25,19.5a109.57,109.57,0,0,1-3.13,16.62c-1.29,4.29-5,12.87-5.62,13.38s-4.33,9.33-5.5,11.5-7.17,7.41-12.5,8.87a76.37,76.37,0,0,1-12.37,2.63c-3.38.33-11,.16-14.88-3.5s-6-5.59-7.12-7.5a43.22,43.22,0,0,0-4.13-5.75c-1.42-1.67-12.75-16.84-14.5-19.63a33.32,33.32,0,0,0-3.4-4.88c-2.76-3.66,22-3.34,22-.71a49,49,0,0,0,.92,9.34c.67,3.13,1.5,6,2.25,6.88s1.92,1.75,4.63,2,5.37-.34,9.62-1.75c6.17-1.42,9.75-4.09,13.25-8.88s5.84-7.46,7.5-12a99,99,0,0,0,4.25-20.12c.83-7.42-2.33-15.92-3.12-18.38s-2-5.46-3.25-6.63A6.75,6.75,0,0,1,169,90.53a5.69,5.69,0,0,1-.7,2.63c-.38,2.21-5.63,3-8.38,4.87s-11.33,8.5-15.25,14.88-4.66,7.62-6.75,14-2.46,17.24-2.46,17.24l-22.11.68,3.82-28.67Z" transform="translate(-6.13 -6.21)"/><path class="cls-1" d="M273.66,114.13l.69.57s.38.72.46-.11.1-6.71.69-9,2.25-5.83,2.79-7.26,2.91-9.59,3.34-10.67,2-5.75,4-8A15.85,15.85,0,0,1,291,75.55,40.24,40.24,0,0,0,296.3,73c.69-.54,1.35-1.58,2.33-2.33a5.63,5.63,0,0,1,3-.67l.05,3.1a7.32,7.32,0,0,0,.6,2.37c.43.6,2.81,2.17,3.42,2.79s1.88,2.24,3.33,3.79c1.76,1.39,7.59,3.73,7.92,4.14s.28.67.57,1.37,2.59,5.13,3.22,8,1.64,12.82,1.84,16.54c.27,2.58.74,12.09.57,16.07a39.3,39.3,0,0,1-1.38,7.92c-.13,2.64-.53,7.35-.8,8.85s-3.16,8.76-3.79,10.21-2.91,7.35-5.63,9.42c-1.7,1.42-3.91,2.62-9.41,2.07-4-.45-5.41-.52-9.18-2.35-2.06-1.05-5.65-2.49-8-5.92s-7.49-14.61-8.16-17-2-8.94-2.52-11.26-1.95-.57-1.95-.57l-.46-7s14.35-2.74,14,.56-1,7.31-1.14,9.09-.2,8.24-.14,9.77a8.79,8.79,0,0,0,2.09,4.7,9.22,9.22,0,0,0,3.79,1.14,15.27,15.27,0,0,0,5.17-1.49c1.4-.68,4-2.18,8.61-9.07s7.63-14,8.38-17.11a44.86,44.86,0,0,0,0-14.35,84.4,84.4,0,0,0-3.21-9.3c-2.67-4.37-4.36-4.73-5.52-5.17s-.78-.7-2.15-.19-4.28,3.41-4.28,3.41l-5.51,8.15-3.21,9.76s-2.23,8.24-2.9,10.46-14-.47-14-.47l-.23-7.92,2.07-.46" transform="translate(-6.13 -6.21)"/><path class="cls-1" d="M273.66,114.13l.69.57s.38.72.46-.11.1-6.71.69-9,2.25-5.83,2.79-7.26,2.91-9.59,3.34-10.67,2-5.75,4-8A15.85,15.85,0,0,1,291,75.55,40.24,40.24,0,0,0,296.3,73c.69-.54,1.35-1.58,2.33-2.33a5.63,5.63,0,0,1,3-.67l.05,3.1a7.32,7.32,0,0,0,.6,2.37c.43.6,2.81,2.17,3.42,2.79s1.88,2.24,3.33,3.79c1.76,1.39,7.59,3.73,7.92,4.14s.28.67.57,1.37,2.59,5.13,3.22,8,1.64,12.82,1.84,16.54c.27,2.58.74,12.09.57,16.07a39.3,39.3,0,0,1-1.38,7.92c-.13,2.64-.53,7.35-.8,8.85s-3.16,8.76-3.79,10.21-2.91,7.35-5.63,9.42c-1.7,1.42-3.91,2.62-9.41,2.07-4-.45-5.41-.52-9.18-2.35-2.06-1.05-5.65-2.49-8-5.92s-7.49-14.61-8.16-17-2-8.94-2.52-11.26-1.95-.57-1.95-.57l-.46-7s14.35-2.74,14,.56-1,7.31-1.14,9.09-.2,8.24-.14,9.77a8.79,8.79,0,0,0,2.09,4.7,9.22,9.22,0,0,0,3.79,1.14,15.27,15.27,0,0,0,5.17-1.49c1.4-.68,4-2.18,8.61-9.07s7.63-14,8.38-17.11a44.86,44.86,0,0,0,0-14.35,84.4,84.4,0,0,0-3.21-9.3c-2.67-4.37-4.36-4.73-5.52-5.17s-.78-.7-2.15-.19-4.28,3.41-4.28,3.41l-5.51,8.15-3.21,9.76s-2.23,8.24-2.9,10.46-14-.47-14-.47l-.23-7.92,2.07-.46Z" transform="translate(-6.13 -6.21)"/><path class="cls-1" d="M111.72,261.56c-1.76-1.32-2.81-2.35-3.13-3.11s-.3-1.94.15-3.59l5.12,3.86,2.9-3.87L111.65,251a5.86,5.86,0,0,1,3.42-1.16,10.05,10.05,0,0,1,3.85,2.14l3.1-4.11-2.17-1.64a7.68,7.68,0,0,0-7-1.24,12.62,12.62,0,0,0-6.76,4.87,12.37,12.37,0,0,0-2.74,7.8,7.57,7.57,0,0,0,3.07,6.38l2.18,1.64Z" transform="translate(-6.13 -6.21)"/><rect class="cls-1" x="108.02" y="256.88" width="22.29" height="4.78" transform="translate(-169.09 210.31) rotate(-56.7)"/><path class="cls-1" d="M141.78,259.61l-4.2-2.36-5.83,10.26,1.11-10.65a3.47,3.47,0,0,0-1.72-3.67,2.64,2.64,0,0,0-2.2-.25,3.14,3.14,0,0,0-1.77,1.52l-9.61,17.1,4.16,2.35,6.44-11.34-1,10.8a8.58,8.58,0,0,0,.09,3.26,2.5,2.5,0,0,0,1.19,1.48,2.25,2.25,0,0,0,2,.08,3.38,3.38,0,0,0,1.83-1.67Z" transform="translate(-6.13 -6.21)"/><path class="cls-1" d="M153.24,268.4a10,10,0,0,0-5.84-6.2l-4.42-2-9.26,20.28,4.35,2,7-15.41a6.14,6.14,0,0,1,3.25,3.12,6.72,6.72,0,0,1-3.28,7.84,4.23,4.23,0,0,1-3.75.07l-2.21,4.86a8.86,8.86,0,0,0,7.58.07,11.33,11.33,0,0,0,5.76-6,11.83,11.83,0,0,0,.78-8.59Z" transform="translate(-6.13 -6.21)"/><polygon class="cls-1" points="164.91 265.69 160.4 264 157.66 271.33 154.11 270 156.85 262.67 152.38 260.99 144.56 281.87 149.04 283.55 152.24 275 155.79 276.33 152.59 284.88 157.1 286.56 164.91 265.69"/><path class="cls-1" d="M187.23,280.07a8.78,8.78,0,0,0-13.3-4,13,13,0,0,0-4.65,15.57,8.81,8.81,0,0,0,13.31,3.94,12.93,12.93,0,0,0,4.64-15.54Zm-6.77,10.75a4.43,4.43,0,0,1-3.88.64,4.38,4.38,0,0,1-2.88-2.66,6.12,6.12,0,0,1-.19-4.37,6.29,6.29,0,0,1,2.58-3.54,4.39,4.39,0,0,1,3.83-.65,4.49,4.49,0,0,1,2.91,2.66,6.3,6.3,0,0,1,.18,4.37,6.13,6.13,0,0,1-2.55,3.55Z" transform="translate(-6.13 -6.21)"/><path class="cls-1" d="M200.76,280.18l-6.49,14.45,1-15.75-4.9-1.14-.58,17.37a11.81,11.81,0,0,0,.5,4.62,3.7,3.7,0,0,0,5.32,1.25,12.66,12.66,0,0,0,2.57-4l7.52-15.68Z" transform="translate(-6.13 -6.21)"/><path class="cls-1" d="M213.61,300.2c-2.16-.41-3.55-.86-4.18-1.4s-1.12-1.6-1.45-3.28l6.29,1.18.89-4.75-6.29-1.18a5.88,5.88,0,0,1,2.55-2.56c.78-.28,2.25-.19,4.41.21l.95-5.06-2.67-.5a7.67,7.67,0,0,0-6.81,2,12.68,12.68,0,0,0-3.9,7.36,12.42,12.42,0,0,0,1,8.21,7.57,7.57,0,0,0,5.59,4.35l2.67.51Z" transform="translate(-6.13 -6.21)"/><path class="cls-1" d="M233.85,285.86l-4.76-.67-1.69,11.68-2.85-10.32a3.47,3.47,0,0,0-2.94-2.79,2.65,2.65,0,0,0-2.14.57,3.14,3.14,0,0,0-1.09,2.06l-2.73,19.43,4.74.66,1.86-12.9,3,10.41a8.88,8.88,0,0,0,1.27,3,2.48,2.48,0,0,0,1.65.94,2.25,2.25,0,0,0,1.86-.64,3.41,3.41,0,0,0,1.09-2.22Z" transform="translate(-6.13 -6.21)"/><path class="cls-1" d="M244.87,298.8a29.25,29.25,0,0,0-3.27-3.6c-1.4-1.32-2.06-2.21-2-2.68a.85.85,0,0,1,.37-.7,1.43,1.43,0,0,1,.81-.12l4.81.46.49-5.13-5-.47a5.93,5.93,0,0,0-4.31,1.13,6.23,6.23,0,0,0-2.09,4.59,5.37,5.37,0,0,0,.83,3.78,30.71,30.71,0,0,0,3.15,3.49c1.39,1.38,2,2.37,2,3-.08.79-.72,1.15-1.9,1l-4.95-.47-.48,5.13,5.11.48c2.71.26,4.58-.21,5.6-1.39a8,8,0,0,0,1.79-4.62,5.46,5.46,0,0,0-1-3.89Z" transform="translate(-6.13 -6.21)"/><path class="cls-1" d="M258.86,305c-2.19-.12-3.63-.39-4.33-.85a5.5,5.5,0,0,1-1.86-3.06l6.39.36.28-4.83-6.4-.36a5.9,5.9,0,0,1,2.2-2.87,10.2,10.2,0,0,1,4.4-.36l.29-5.14-2.72-.15a7.64,7.64,0,0,0-6.49,2.85,12.62,12.62,0,0,0-2.92,7.8,12.41,12.41,0,0,0,2.05,8,7.59,7.59,0,0,0,6.11,3.59l2.71.15Z" transform="translate(-6.13 -6.21)"/><path class="cls-1" d="M280.61,299.89a28.65,28.65,0,0,0-3.62-3.26c-1.52-1.17-2.26-2-2.26-2.47a.84.84,0,0,1,.29-.73,1.46,1.46,0,0,1,.8-.2l4.84,0,0-5.15-5,0a5.94,5.94,0,0,0-4.17,1.55,6.18,6.18,0,0,0-1.62,4.78,5.33,5.33,0,0,0,1.2,3.68,31.28,31.28,0,0,0,3.48,3.16c1.51,1.23,2.26,2.15,2.26,2.76,0,.79-.6,1.21-1.78,1.21l-5,0,0,5.15,5.14,0c2.73,0,4.53-.65,5.44-1.93a8,8,0,0,0,1.32-4.78,5.56,5.56,0,0,0-1.34-3.78Z" transform="translate(-6.13 -6.21)"/><polygon class="cls-1" points="288 281.44 276.19 281.91 276.4 287.25 279.92 287.11 280.59 304.04 285.37 303.86 284.7 286.92 288.21 286.78 288 281.44"/><path class="cls-1" d="M308.89,286.5l-4.8.38,1.14,14.61a3.16,3.16,0,0,1-.36,2,2.07,2.07,0,0,1-1.65.8,2,2,0,0,1-1.72-.54,3.09,3.09,0,0,1-.7-1.92l-1.14-14.62-4.77.38,1.1,14.17a9.5,9.5,0,0,0,2.35,6,7,7,0,0,0,10.27-.83,9.49,9.49,0,0,0,1.39-6.27Z" transform="translate(-6.13 -6.21)"/><path class="cls-1" d="M323.89,287.9a10,10,0,0,0-8.22-2.21l-4.83.6,2.77,22.12,4.74-.59L316.25,291a6.14,6.14,0,0,1,4.41,1,6.74,6.74,0,0,1,1.33,8.39,4.24,4.24,0,0,1-3.16,2l.67,5.31a8.89,8.89,0,0,0,6.48-3.93,11.31,11.31,0,0,0,1.76-8.13,11.83,11.83,0,0,0-3.85-7.72Z" transform="translate(-6.13 -6.21)"/><path class="cls-1" d="M341.8,299.18a10,10,0,0,1-4.41.13c-.79-.25-1.6-1.11-2.49-2.58l6.31-1.06-.8-4.77L334.09,292a6,6,0,0,1,1.51-3.29c.64-.53,2-1,4.21-1.32l-.86-5.08-2.68.45a7.71,7.71,0,0,0-5.7,4.22,12.67,12.67,0,0,0-1.12,8.25,12.37,12.37,0,0,0,3.78,7.36,7.6,7.6,0,0,0,6.75,2.15l2.68-.45Z" transform="translate(-6.13 -6.21)"/><path class="cls-1" d="M355.74,278.74l-4.7,1,2.41,11.54-6.22-8.72a3.47,3.47,0,0,0-3.72-1.61,2.63,2.63,0,0,0-1.81,1.27,3.11,3.11,0,0,0-.32,2.31l4.1,19.18,4.67-1L347.48,290l6.42,8.74a8.83,8.83,0,0,0,2.23,2.38,2.48,2.48,0,0,0,1.86.32,2.28,2.28,0,0,0,1.54-1.24,3.47,3.47,0,0,0,.26-2.46Z" transform="translate(-6.13 -6.21)"/><polygon class="cls-1" points="362.04 269.29 350.59 272.24 351.93 277.41 355.33 276.53 359.56 292.95 364.19 291.76 359.96 275.34 363.37 274.47 362.04 269.29"/><path class="cls-1" d="M384.42,288.62c-2.1.63-3.56.86-4.36.66s-1.73-.91-2.79-2.25l6.14-1.82L382,280.57l-6.14,1.82A5.85,5.85,0,0,1,377,279c.56-.6,1.91-1.2,4-1.82l-1.46-4.94L377,273a7.7,7.7,0,0,0-5.15,4.87,12.72,12.72,0,0,0-.12,8.33,12.45,12.45,0,0,0,4.64,6.85,7.59,7.59,0,0,0,7,1.33l2.61-.78Z" transform="translate(-6.13 -6.21)"/><path class="cls-1" d="M395.78,266.7l-4.55,1.57L395,279.44l-7.23-7.9a3.45,3.45,0,0,0-3.88-1.15,2.66,2.66,0,0,0-1.65,1.47,3.19,3.19,0,0,0,0,2.34l6.39,18.54,4.53-1.56L389,278.84l7.43,7.9a9.06,9.06,0,0,0,2.5,2.1,2.53,2.53,0,0,0,1.89.09,2.3,2.3,0,0,0,1.37-1.42,3.43,3.43,0,0,0,0-2.48Z" transform="translate(-6.13 -6.21)"/><path class="cls-1" d="M410.82,264.07a10,10,0,0,0-8.52,0l-4.51,1.82,8.35,20.67,4.44-1.79L404.23,269a6.17,6.17,0,0,1,4.51-.21,6,6,0,0,1,3.24,3.63,5.83,5.83,0,0,1,.19,4.14,4.21,4.21,0,0,1-2.52,2.77l2,5a8.91,8.91,0,0,0,5.27-5.46,11.36,11.36,0,0,0-.4-8.31,11.84,11.84,0,0,0-5.7-6.48Z" transform="translate(-6.13 -6.21)"/><path class="cls-1" d="M429.31,260.64a8.82,8.82,0,0,0-4.15-4.49,6.49,6.49,0,0,0-8.86,4.08,8.88,8.88,0,0,0,.77,6.1l6.16,13.26,4.34-2-6.27-13.5a3.33,3.33,0,0,1-.38-2.06,1.68,1.68,0,0,1,1-1.27,1.74,1.74,0,0,1,1.6.06,3.44,3.44,0,0,1,1.33,1.63l.88,1.9L423,265.6l2.11,4.56,2.72-1.26,3.27,7,4.36-2Z" transform="translate(-6.13 -6.21)"/><path class="cls-1" d="M441.54,245.66l-4.26,2.24,5.46,10.46-8.35-6.7a3.45,3.45,0,0,0-4-.54,2.65,2.65,0,0,0-1.4,1.71,3.18,3.18,0,0,0,.32,2.31l9.16,17.35,4.23-2.23-6-11.56,8.56,6.67a8.8,8.8,0,0,0,2.79,1.69,2.49,2.49,0,0,0,1.88-.2,2.27,2.27,0,0,0,1.14-1.61,3.42,3.42,0,0,0-.42-2.44Z" transform="translate(-6.13 -6.21)"/><path class="cls-1" d="M458.06,249.56a29.63,29.63,0,0,0-4.76-1c-1.9-.24-3-.58-3.2-1a.88.88,0,0,1-.12-.78,1.54,1.54,0,0,1,.59-.57l4.17-2.46-2.62-4.43-4.31,2.54a5.92,5.92,0,0,0-2.82,3.44,6.23,6.23,0,0,0,1,4.94,5.39,5.39,0,0,0,2.9,2.58,32.39,32.39,0,0,0,4.59,1c1.94.3,3,.71,3.35,1.24s.1,1.34-.92,1.94l-4.29,2.53,2.62,4.44,4.43-2.61q3.51-2.09,3.71-4.41a7.94,7.94,0,0,0-1.26-4.79,5.47,5.47,0,0,0-3.06-2.59Z" transform="translate(-6.13 -6.21)"/><path class="cls-1" d="M462,233.07l5.94,14.69-10.71-11.59L453,238.91l12.15,12.44a11.68,11.68,0,0,0,3.68,2.84,3.68,3.68,0,0,0,4.58-3,12.69,12.69,0,0,0-1.08-4.6l-6.12-16.28Z" transform="translate(-6.13 -6.21)"/><path class="cls-1" d="M485.38,237.68a10.12,10.12,0,0,1-3.91,2c-.83.12-1.94-.3-3.38-1.23l5.22-3.72-2.81-3.93-5.21,3.71a5.82,5.82,0,0,1-.08-3.61c.34-.75,1.42-1.75,3.21-3l-3-4.19-2.22,1.58a7.69,7.69,0,0,0-3.28,6.28,12.6,12.6,0,0,0,2.6,7.91,12.34,12.34,0,0,0,6.62,5,7.59,7.59,0,0,0,7-1l2.22-1.58Z" transform="translate(-6.13 -6.21)"/><path class="cls-1" d="M496.63,225.7a3.1,3.1,0,0,0-2.26-1.46,8.45,8.45,0,0,0-2.88.73c1.57-1.56,1.49-3.44-.26-5.67a6.57,6.57,0,0,0-4.38-2.74,6.35,6.35,0,0,0-4.78,1.52,6.28,6.28,0,0,0-2.6,4.79,9,9,0,0,0,2.32,5.94l8.89,11.34,3.93-3.09L485.7,225.7a5.06,5.06,0,0,1-1.14-2.13,1.41,1.41,0,0,1,.6-1.37,1.88,1.88,0,0,1,1.23-.39,1.68,1.68,0,0,1,1.21.74,2.12,2.12,0,0,1,.61,1.75,3.24,3.24,0,0,1-1.27,1.6l3.1,3.95a4.82,4.82,0,0,1,2-1.07,1.43,1.43,0,0,1,1.36.66l4.16,5.31,3.83-3Z" transform="translate(-6.13 -6.21)"/><path class="cls-1" d="M508.9,218.6c-1.66,1.43-2.89,2.24-3.7,2.39s-2-.12-3.47-.91l4.85-4.18-3.15-3.66-4.86,4.18a5.88,5.88,0,0,1-.4-3.6c.27-.78,1.25-1.87,2.91-3.31l-3.36-3.9-2.06,1.78a7.65,7.65,0,0,0-2.69,6.55,12.59,12.59,0,0,0,3.31,7.64,12.43,12.43,0,0,0,7,4.35,7.6,7.6,0,0,0,6.88-1.65l2.07-1.78Z" transform="translate(-6.13 -6.21)"/><path class="cls-1" d="M510.15,193.88l-3.5,3.31,8.08,8.59-9.85-4.2a3.48,3.48,0,0,0-4,.56,2.67,2.67,0,0,0-.89,2,3.19,3.19,0,0,0,.93,2.14l13.5,14.24,3.47-3.29-8.93-9.5,10,4.11a9,9,0,0,0,3.15.88,2.49,2.49,0,0,0,1.75-.7,2.29,2.29,0,0,0,.67-1.86,3.4,3.4,0,0,0-1.06-2.23Z" transform="translate(-6.13 -6.21)"/><rect class="cls-1" x="518.92" y="187.22" width="4.78" height="22.29" transform="translate(8.96 426.36) rotate(-45.66)"/><path class="cls-1" d="M535.57,178.87l-6.72,7.49,3.74,3.35,3.24-3.6a5.56,5.56,0,0,1,.83,3.07,4,4,0,0,1-.86,2.63,4.54,4.54,0,0,1-3.77,1.57,7.7,7.7,0,0,1-6.65-5.82,4.33,4.33,0,0,1,1.16-3.91,5.73,5.73,0,0,1,1.87-1.42,8.13,8.13,0,0,1,2.65-.47l-.65-5.09a11.9,11.9,0,0,0-4.42,1,10.52,10.52,0,0,0-3.59,2.62,8.7,8.7,0,0,0-2.09,7.42,13,13,0,0,0,12.09,10.86,8.7,8.7,0,0,0,7.13-2.91,8.58,8.58,0,0,0,2.15-7.63,13.22,13.22,0,0,0-4.35-7.57Z" transform="translate(-6.13 -6.21)"/><rect class="cls-1" x="537.85" y="166.1" width="4.78" height="22.29" transform="translate(53.59 474.97) rotate(-50.48)"/><path class="cls-1" d="M543.83,154.53l-2.93,3.82,9.34,7.21L539.85,163a3.45,3.45,0,0,0-3.87,1.19,2.61,2.61,0,0,0-.56,2.14,3.18,3.18,0,0,0,1.26,2l15.59,11.91,2.9-3.8-10.32-8,10.56,2.47a9,9,0,0,0,3.24.37,2.52,2.52,0,0,0,1.62-1,2.28,2.28,0,0,0,.37-1.94,3.45,3.45,0,0,0-1.41-2Z" transform="translate(-6.13 -6.21)"/><path class="cls-1" d="M562.76,142l-5.66,8.31,4.15,2.83,2.72-4a5.47,5.47,0,0,1,1.24,2.94,3.94,3.94,0,0,1-.51,2.71,4.49,4.49,0,0,1-3.52,2.06,6.81,6.81,0,0,1-4.52-1.32,6.75,6.75,0,0,1-2.84-3.56,4.33,4.33,0,0,1,.62-4,5.59,5.59,0,0,1,1.67-1.66,8.36,8.36,0,0,1,2.56-.82l-1.32-5a11.77,11.77,0,0,0-4.25,1.56,10.54,10.54,0,0,0-3.21,3.07,8.78,8.78,0,0,0-1.09,7.64A13,13,0,0,0,562.23,162a8.88,8.88,0,0,0,7.8-11.68,13.22,13.22,0,0,0-5.32-6.92Z" transform="translate(-6.13 -6.21)"/></svg>