<svg id="Laag_1" data-name="Laag 1" xmlns="http://www.w3.org/2000/svg" viewBox="0 0 515.39 232.07"><defs><style>.cls-1{fill:#ed2024;}</style></defs><title>Logo_red_notext</title><path class="cls-1" d="M8.67,72.32l7.25,11.5c.54.88,7,11,7,11s20.54-3.21,20.75-3,1.62,21.13,1.75,24.5.7,22.67.5,23a117.7,117.7,0,0,1-11,6c-3.17,1.46-5.09,2.21-13.25,4l-13.75,3s8,6.21,10.5,8,8.25,5.25,8.25,5.25l21.5.25s.33,9.63.75,15.25c.16,3.42.75,11.54,1,14.5s1.5,11.25,1.5,11.25,5.37,4.21,6.25,5,8,7.5,8,7.5-3.25-14.88-3.75-23-.75-15.63-.75-18.75a97,97,0,0,1,1-14.5c0-.46.45-2.46.75-2.5s7.91-3.37,10.75-5,4.7-3.17,7-4.75,3.87-2.83,6-4.5,4.29-3.46,4.5-3.5-3.75-12.38-3.75-11.75-7,1.83-7.75,2-6.75,1.92-8,2a56.16,56.16,0,0,1-6.5,0c-1.8-.17-.54-7.79-.25-15.75s.5-17,.5-17,.41-8.71.5-9.75a11.63,11.63,0,0,1,1.5-4.5c.66-.75.21-.66,7-2.5a128.48,128.48,0,0,1,18.5-3c2.29-.21,17-1,19.5-1.25S134,80.2,136.17,80.07s6.91-.17,6.75-1.25a18.75,18.75,0,0,1-.25-4.5c.2-.75,3.25-4.08,3.25-5s-3.59-2.79-5.75-4-8.46-2.92-12.75-3.5-13.46-1-20-1.25-15.67-.37-18.5.25c-2,.29-26.5,2.25-26.5,2.25s.33-5.5-.25-6S46.5,58.65,45.92,58.82a5.34,5.34,0,0,1-2,0,11.18,11.18,0,0,1-1.75-1s.33,5.08.25,5.25,0,1.5-1,1.25-11.25,1.75-16.5,3-16.25,5-16.25,5" transform="translate(-7.92 -14.5)"/><path class="cls-1" d="M167.92,52a12.22,12.22,0,0,0,.33,3.83c.5,1.5,1.17,2.5,3.67,7s5.33,9.92,6.33,11.33a5.5,5.5,0,0,0,2.33,2.17c.92.5.25.5,2.84,1s26.33-.75,26.66-.67a1,1,0,0,1,.84.67c.16.5-1.42,16.92-1.67,24.17s-1.17,24.75-1.17,32.16-.25,45.09-.16,46.34,0,.41.5,1.66a11.83,11.83,0,0,0,2,3.17c.91,1.17,8.16,12.16,8.5,12.67s1.42,1.83,1.83,2.33a5.76,5.76,0,0,0,1.34,1,2.34,2.34,0,0,0,.33-1c.08-.67.41-4.58.5-7.17a20.33,20.33,0,0,0,0-4c-.17-1-1.34-4.83-1-4s-1-2.91-1.5-4.33-.92-2.25-1-2.67.08.25,0-2.16.08-23.42,0-25.34-.17-.66.17-1.5,1.16-4.08,1.66-6.16,2.92-15.09,4-21,2.5-15.67,3.5-20.34,2.42-13.66,2.5-14.83a14.41,14.41,0,0,0,0-3.83c-.25-.92-.66-1.42-1-2.34a23,23,0,0,0-1-2.83c-.5-1-1.08-1.42-1.16-2s-.17-.75,0-1.17a4.65,4.65,0,0,1,.83-1.16c.33-.42.67-.5,1.33-1a12.43,12.43,0,0,1,3.34-1.83c1.16-.34,5.16-1.34,6.5-1.5s4.5-.34,7.66-.51,3.75-.16,5.17-.33a16.89,16.89,0,0,0,4.5-1.33c1-.5,2.25-.84,2.83-1.17a6.21,6.21,0,0,0,1.34-1l.66-.66V57.32s-2.08-.33-3.33-.5-3.42-.25-5-.5-2.58-.41-4.5-.66-4.58-.59-6.17-.84-3.25-.25-6-.83-5.25-1.09-6.83-1.5-3.25-.67-3.67-.84a2.94,2.94,0,0,1-1.5-1,8.92,8.92,0,0,1-1-2.5,28.63,28.63,0,0,0-1.5-3.34c-.75-1.33-1.5-2.17-2-3s-2.16-3.08-2.83-4S213.75,33,213.75,33s-.91-.75-1.33-.5-.58.33-.67.67,0,.16,0,1.16-.5,2.5-.66,4.5-.34,11-.34,12.34-.16.83-.16.83a9.41,9.41,0,0,0-1.84,0c-1.41.08-4.91.58-7.66.67s-2.75-.34-4.84,0a61.86,61.86,0,0,1-6.66.83c-2.75.17-4.5.33-6.67.33s-4.33-.25-6.17-.33a40.45,40.45,0,0,1-6-1c-1-.25-2.83-.5-2.83-.5" transform="translate(-7.92 -14.5)"/><path class="cls-1" d="M167.92,52a12.22,12.22,0,0,0,.33,3.83c.5,1.5,1.17,2.5,3.67,7s5.33,9.92,6.33,11.33a5.5,5.5,0,0,0,2.33,2.17c.92.5.25.5,2.84,1s26.33-.75,26.66-.67a1,1,0,0,1,.84.67c.16.5-1.42,16.92-1.67,24.17s-1.17,24.75-1.17,32.16-.25,45.09-.16,46.34,0,.41.5,1.66a11.83,11.83,0,0,0,2,3.17c.91,1.17,8.16,12.16,8.5,12.67s1.42,1.83,1.83,2.33a5.76,5.76,0,0,0,1.34,1,2.34,2.34,0,0,0,.33-1c.08-.67.41-4.58.5-7.17a20.33,20.33,0,0,0,0-4c-.17-1-1.34-4.83-1-4s-1-2.91-1.5-4.33-.92-2.25-1-2.67.08.25,0-2.16.08-23.42,0-25.34-.17-.66.17-1.5,1.16-4.08,1.66-6.16,2.92-15.09,4-21,2.5-15.67,3.5-20.34,2.42-13.66,2.5-14.83a14.41,14.41,0,0,0,0-3.83c-.25-.92-.66-1.42-1-2.34a23,23,0,0,0-1-2.83c-.5-1-1.08-1.42-1.16-2s-.17-.75,0-1.17a4.65,4.65,0,0,1,.83-1.16c.33-.42.67-.5,1.33-1a12.43,12.43,0,0,1,3.34-1.83c1.16-.34,5.16-1.34,6.5-1.5s4.5-.34,7.66-.51,3.75-.16,5.17-.33a16.89,16.89,0,0,0,4.5-1.33c1-.5,2.25-.84,2.83-1.17a6.21,6.21,0,0,0,1.34-1l.66-.66V57.32s-2.08-.33-3.33-.5-3.42-.25-5-.5-2.58-.41-4.5-.66-4.58-.59-6.17-.84-3.25-.25-6-.83-5.25-1.09-6.83-1.5-3.25-.67-3.67-.84a2.94,2.94,0,0,1-1.5-1,8.92,8.92,0,0,1-1-2.5,28.63,28.63,0,0,0-1.5-3.34c-.75-1.33-1.5-2.17-2-3s-2.16-3.08-2.83-4S213.75,33,213.75,33s-.91-.75-1.33-.5-.58.33-.67.67,0,.16,0,1.16-.5,2.5-.66,4.5-.34,11-.34,12.34-.16.83-.16.83a9.41,9.41,0,0,0-1.84,0c-1.41.08-4.91.58-7.66.67s-2.75-.34-4.84,0a61.86,61.86,0,0,1-6.66.83c-2.75.17-4.5.33-6.67.33s-4.33-.25-6.17-.33a40.45,40.45,0,0,1-6-1c-1-.25-2.83-.5-2.83-.5Z" transform="translate(-7.92 -14.5)"/><path class="cls-1" d="M271.75,14.65c-.5.34-2.67,10.59-3.33,14s-3,17.25-3.34,21.67S263.67,76.49,263.42,80s-1.09,14.08-1.34,21.33-.41,17.5-.33,27,.83,21.08,1.33,33,1.34,28.08,1.67,34.33,2.08,20.42,2.33,23,5.09,24.09,5.34,25a8.79,8.79,0,0,0,1.33,2.67.63.63,0,0,0,1,0c.25-.34.42-3.67.33-6s-.58-18.58-.66-23.67.25-13.16.33-21-.17-25.08,0-36.66.67-21,.67-21a1.83,1.83,0,0,1,1,1c.41.83.66-15.67.66-15.67s-1.16.58-1.33.33.17-3.08,0-9,0-40,0-51V38.32c0-3.25-.25-7.5-.67-11.67A55,55,0,0,0,273.75,19c-.5-2.59-.59-3.59-.67-4s-.83-.67-1.33-.34" transform="translate(-7.92 -14.5)"/><path class="cls-1" d="M271.75,14.65c-.5.34-2.67,10.59-3.33,14s-3,17.25-3.34,21.67S263.67,76.49,263.42,80s-1.09,14.08-1.34,21.33-.41,17.5-.33,27,.83,21.08,1.33,33,1.34,28.08,1.67,34.33,2.08,20.42,2.33,23,5.09,24.09,5.34,25a8.79,8.79,0,0,0,1.33,2.67.63.63,0,0,0,1,0c.25-.34.42-3.67.33-6s-.58-18.58-.66-23.67.25-13.16.33-21-.17-25.08,0-36.66.67-21,.67-21a1.83,1.83,0,0,1,1,1c.41.83.66-15.67.66-15.67s-1.16.58-1.33.33.17-3.08,0-9,0-40,0-51V38.32c0-3.25-.25-7.5-.67-11.67A55,55,0,0,0,273.75,19c-.5-2.59-.59-3.59-.67-4s-.83-.67-1.33-.34Z" transform="translate(-7.92 -14.5)"/><path class="cls-1" d="M355.58,69.49a5.53,5.53,0,0,1-.16,1.5c-.19.46-1,1-1.84,1.66a34,34,0,0,0-3,3.5c-.66.86-2.22,3.09-3.16,4.5A31.8,31.8,0,0,0,344.58,87c-.79,2.33-1.58,6.06-2,7.66s-.89,5.09-1,6-.1,3.36-.16,5.17a28.19,28.19,0,0,0,.5,6.67c.5,2.33,1.19,4.33,1.5,5.33s1.12,3.92,1.5,5.33a43.4,43.4,0,0,0,1.33,4.17,25.52,25.52,0,0,0,2.84,5.16c1.27,2,2.81,4.51,3.66,5.67a20.07,20.07,0,0,0,4,4c.79.36,2.44,1.21,2.84,2a10.19,10.19,0,0,0,1.83,2.17c.44.44,1,.44,1.83.5a9.63,9.63,0,0,0,2.5-.34,6.78,6.78,0,0,0,2.84-1,30.44,30.44,0,0,0,3.5-3.5,18.21,18.21,0,0,0,2-2.66,39.51,39.51,0,0,0,2-4.17,33.34,33.34,0,0,0,1.5-4.33,25.39,25.39,0,0,0,.83-4.5,43.08,43.08,0,0,0,.33-6.17c0-2-.33-4-.33-4.33s-.92-1.25-.83-1-.15-.77,0-1.17.46-.39.83-.83,1.17-2,1.83-3a14.27,14.27,0,0,0,1.84-2.83c.58-1.36.83-2.75,1.33-4.34a30.94,30.94,0,0,0,1.17-4.16c.2-1.3.56-2.77.66-3.5a17.58,17.58,0,0,0,.17-3c0-1.67-.5-1.67-.83-3.17a15.24,15.24,0,0,0-1.34-3.5c-.66-1.5-2-2.33-3.33-3.67a41.1,41.1,0,0,0-6-4.48c-2.15-1.37-7.77,11.57-6.39,12.44.37.59.29.46.54.84.46.25,1,.12,1,1a35.18,35.18,0,0,1,0,6.25c-.13,1.66-.34,3.37-.59,4.79s-.41,1.87-.58,3.33a37.78,37.78,0,0,1-.67,4.33,77.62,77.62,0,0,1-2.54,8.13,18.5,18.5,0,0,1-2.41,2.66c-.67.8-1.88,2.25-2.07,2.57-.6.85-.52.85-.93.31a3.73,3.73,0,0,1-.82-1.75c-.39-1.25-.39-12.84-.22-15.38s0-5.58.16-7.25.59-1.46,1.17-1.75.71-.75.83-1.5a34.75,34.75,0,0,1,3.25-5.91,14.54,14.54,0,0,1,1.75-2.21c1-1-.17-.17,1,.33.21.25.62.63.91,1,2.46,1.88,8.2-11,6.55-12.22s-7.24-4.43-7.75-4.65c-3-1.34-7.5-2.84-6.34-2.5s-1-.48-1.33-.34a15.64,15.64,0,0,1-2.83-.16" transform="translate(-7.92 -14.5)"/><path class="cls-1" d="M355.58,69.49a5.53,5.53,0,0,1-.16,1.5c-.19.46-1,1-1.84,1.66a34,34,0,0,0-3,3.5c-.66.86-2.22,3.09-3.16,4.5A31.8,31.8,0,0,0,344.58,87c-.79,2.33-1.58,6.06-2,7.66s-.89,5.09-1,6-.1,3.36-.16,5.17a28.19,28.19,0,0,0,.5,6.67c.5,2.33,1.19,4.33,1.5,5.33s1.12,3.92,1.5,5.33a43.4,43.4,0,0,0,1.33,4.17,25.52,25.52,0,0,0,2.84,5.16c1.27,2,2.81,4.51,3.66,5.67a20.07,20.07,0,0,0,4,4c.79.36,2.44,1.21,2.84,2a10.19,10.19,0,0,0,1.83,2.17c.44.44,1,.44,1.83.5a9.63,9.63,0,0,0,2.5-.34,6.78,6.78,0,0,0,2.84-1,30.44,30.44,0,0,0,3.5-3.5,18.21,18.21,0,0,0,2-2.66,39.51,39.51,0,0,0,2-4.17,33.34,33.34,0,0,0,1.5-4.33,25.39,25.39,0,0,0,.83-4.5,43.08,43.08,0,0,0,.33-6.17c0-2-.33-4-.33-4.33s-.92-1.25-.83-1-.15-.77,0-1.17.46-.39.83-.83,1.17-2,1.83-3a14.27,14.27,0,0,0,1.84-2.83c.58-1.36.83-2.75,1.33-4.34a30.94,30.94,0,0,0,1.17-4.16c.2-1.3.56-2.77.66-3.5a17.58,17.58,0,0,0,.17-3c0-1.67-.5-1.67-.83-3.17a15.24,15.24,0,0,0-1.34-3.5c-.66-1.5-2-2.33-3.33-3.67a41.1,41.1,0,0,0-6-4.48c-2.15-1.37-7.77,11.57-6.39,12.44.37.59.29.46.54.84.46.25,1,.12,1,1a35.18,35.18,0,0,1,0,6.25c-.13,1.66-.34,3.37-.59,4.79s-.41,1.87-.58,3.33a37.78,37.78,0,0,1-.67,4.33,77.62,77.62,0,0,1-2.54,8.13,18.5,18.5,0,0,1-2.41,2.66c-.67.8-1.88,2.25-2.07,2.57-.6.85-.52.85-.93.31a3.73,3.73,0,0,1-.82-1.75c-.39-1.25-.39-12.84-.22-15.38s0-5.58.16-7.25.59-1.46,1.17-1.75.71-.75.83-1.5a34.75,34.75,0,0,1,3.25-5.91,14.54,14.54,0,0,1,1.75-2.21c1-1-.17-.17,1,.33.21.25.62.63.91,1,2.46,1.88,8.2-11,6.55-12.22s-7.24-4.43-7.75-4.65c-3-1.34-7.5-2.84-6.34-2.5s-1-.48-1.33-.34a15.64,15.64,0,0,1-2.83-.16h0Z" transform="translate(-7.92 -14.5)"/><path class="cls-1" d="M424.92,45.82a5.24,5.24,0,0,0,.25-3.25c-.38-1-2.19-2.12-2.75-2.5a42.35,42.35,0,0,0-3.75-2.5c-1.5-.81-5.75-1.81-7-2.25s-6.07-2.56-7.75-2.75a63.87,63.87,0,0,0-7.75.25,17.67,17.67,0,0,0-4.75,1.5c-1.57.63-6,2.06-7,2.5s-4.82,2.56-5.5,3a5.79,5.79,0,0,0-2,2.5,9.16,9.16,0,0,0,.25,2.75,10.45,10.45,0,0,0,1.25,3.5c.87,1.88,6.68,11.13,8.75,14.5s10.12,16.44,13,21.75,9.68,20.06,11.25,23.5,5.87,18.19,6.75,20.5a56.2,56.2,0,0,1,2.25,9c.18,1.69,0,5.88,0,8a49.83,49.83,0,0,1-.75,7.75,104.07,104.07,0,0,1-2.5,13,79.5,79.5,0,0,1-5,13c-1,1.94-4.07,7.56-5,9a21.93,21.93,0,0,1-3.5,4,37,37,0,0,1-3.5,2.75c-1.25.87-5.75,3.69-6.75,4.25a17.22,17.22,0,0,1-6.5,2c-3.13.31-8.5.75-10,.5a22.73,22.73,0,0,1-4.25-1.5c-.63-.25-4.94-2-6-2.5a23,23,0,0,1-3.75-2.5,14.85,14.85,0,0,1-2.75-3c-1.44-1.94-2.19-3.25-3-4.5a10,10,0,0,1-1.5-3.75c-.25-1.31,0-1.81.5-3.25s3.62-12.19,4.25-13.75a44.17,44.17,0,0,0,1.75-7.25c.12-1.31.06-3.06-.5-3a89.09,89.09,0,0,0-8.75,4c-2.34,1.25-7.17,6.17-8.25,8.25a43.32,43.32,0,0,0-2.5,5.75,31.9,31.9,0,0,0-1.5,5.5,9.44,9.44,0,0,0,.5,4c.5,1.19,1.19,2.25,2,3.75a14.78,14.78,0,0,0,2.5,3.25,37.81,37.81,0,0,0,3.75,4.25,5.82,5.82,0,0,1,2.25,2.75,34.88,34.88,0,0,0,2,4.5,19.42,19.42,0,0,0,2.75,4.25c1.06,1.38,4,5.25,5.25,6.75a31.09,31.09,0,0,0,5.5,5,46,46,0,0,0,6.5,3.75,37.85,37.85,0,0,0,7.75,2.75c2.06.38,13.81.82,15,.25a12.54,12.54,0,0,1,3.5-1.5c1.43-.25,6.56-3.25,7.5-3.75s3.43-1.56,4.75-2.25,3.31-2.81,4.5-4a40.16,40.16,0,0,0,4-5.25,45.81,45.81,0,0,0,3.25-6,123.66,123.66,0,0,0,4.75-12,52.37,52.37,0,0,0,2.5-10.5c.62-4.62.44-6.25.75-10.5s.5-8.68.5-11.75-.44-10.25-.75-14.5-1.82-13.5-2.25-15.5a75,75,0,0,0-2.25-8.75c-1.57-5-2.69-8.69-4.25-13.25a125.89,125.89,0,0,0-5.75-15c-3.07-6.56-5.44-10.81-8.25-15.75s-2.69-5.31-4.75-8.75a36.83,36.83,0,0,0-4-5.5c-.63-.81-1.75-1.87-2.5-2.75s-1-1.19-1.75-2a7.9,7.9,0,0,1-1-1.25,14.28,14.28,0,0,1,.5-1.75c.31-.87,1.31-1.44,2-2.25a7.45,7.45,0,0,1,3-2.25,31.33,31.33,0,0,1,4.5-1.25c1-.12,3.81,0,4.75,0s2.37-.12,5.25,0,5.75.44,6.25.5a2.29,2.29,0,0,0,1.5-.25,4.56,4.56,0,0,0,1.25-1,2.75,2.75,0,0,0,1-1.25" transform="translate(-7.92 -14.5)"/><path class="cls-1" d="M424.92,45.82a5.24,5.24,0,0,0,.25-3.25c-.38-1-2.19-2.12-2.75-2.5a42.35,42.35,0,0,0-3.75-2.5c-1.5-.81-5.75-1.81-7-2.25s-6.07-2.56-7.75-2.75a63.87,63.87,0,0,0-7.75.25,17.67,17.67,0,0,0-4.75,1.5c-1.57.63-6,2.06-7,2.5s-4.82,2.56-5.5,3a5.79,5.79,0,0,0-2,2.5,9.16,9.16,0,0,0,.25,2.75,10.45,10.45,0,0,0,1.25,3.5c.87,1.88,6.68,11.13,8.75,14.5s10.12,16.44,13,21.75,9.68,20.06,11.25,23.5,5.87,18.19,6.75,20.5a56.2,56.2,0,0,1,2.25,9c.18,1.69,0,5.88,0,8a49.83,49.83,0,0,1-.75,7.75,104.07,104.07,0,0,1-2.5,13,79.5,79.5,0,0,1-5,13c-1,1.94-4.07,7.56-5,9a21.93,21.93,0,0,1-3.5,4,37,37,0,0,1-3.5,2.75c-1.25.87-5.75,3.69-6.75,4.25a17.22,17.22,0,0,1-6.5,2c-3.13.31-8.5.75-10,.5a22.73,22.73,0,0,1-4.25-1.5c-.63-.25-4.94-2-6-2.5a23,23,0,0,1-3.75-2.5,14.85,14.85,0,0,1-2.75-3c-1.44-1.94-2.19-3.25-3-4.5a10,10,0,0,1-1.5-3.75c-.25-1.31,0-1.81.5-3.25s3.62-12.19,4.25-13.75a44.17,44.17,0,0,0,1.75-7.25c.12-1.31.06-3.06-.5-3a89.09,89.09,0,0,0-8.75,4c-2.34,1.25-7.17,6.17-8.25,8.25a43.32,43.32,0,0,0-2.5,5.75,31.9,31.9,0,0,0-1.5,5.5,9.44,9.44,0,0,0,.5,4c.5,1.19,1.19,2.25,2,3.75a14.78,14.78,0,0,0,2.5,3.25,37.81,37.81,0,0,0,3.75,4.25,5.82,5.82,0,0,1,2.25,2.75,34.88,34.88,0,0,0,2,4.5,19.42,19.42,0,0,0,2.75,4.25c1.06,1.38,4,5.25,5.25,6.75a31.09,31.09,0,0,0,5.5,5,46,46,0,0,0,6.5,3.75,37.85,37.85,0,0,0,7.75,2.75c2.06.38,13.81.82,15,.25a12.54,12.54,0,0,1,3.5-1.5c1.43-.25,6.56-3.25,7.5-3.75s3.43-1.56,4.75-2.25,3.31-2.81,4.5-4a40.16,40.16,0,0,0,4-5.25,45.81,45.81,0,0,0,3.25-6,123.66,123.66,0,0,0,4.75-12,52.37,52.37,0,0,0,2.5-10.5c.62-4.62.44-6.25.75-10.5s.5-8.68.5-11.75-.44-10.25-.75-14.5-1.82-13.5-2.25-15.5a75,75,0,0,0-2.25-8.75c-1.57-5-2.69-8.69-4.25-13.25a125.89,125.89,0,0,0-5.75-15c-3.07-6.56-5.44-10.81-8.25-15.75s-2.69-5.31-4.75-8.75a36.83,36.83,0,0,0-4-5.5c-.63-.81-1.75-1.87-2.5-2.75s-1-1.19-1.75-2a7.9,7.9,0,0,1-1-1.25,14.28,14.28,0,0,1,.5-1.75c.31-.87,1.31-1.44,2-2.25a7.45,7.45,0,0,1,3-2.25,31.33,31.33,0,0,1,4.5-1.25c1-.12,3.81,0,4.75,0s2.37-.12,5.25,0,5.75.44,6.25.5a2.29,2.29,0,0,0,1.5-.25,4.56,4.56,0,0,0,1.25-1,2.75,2.75,0,0,0,1-1.25Z" transform="translate(-7.92 -14.5)"/><path class="cls-1" d="M429.25,86.65s7.06,10.63,7.33,11.34,1,4.77,1.34,6.33a64.71,64.71,0,0,0,1.83,6.5c.73,2.19,2.19,5.08,2.84,6.67a70.55,70.55,0,0,0,3.5,7.5c1,1.64,4.33,6.52,5.33,7.83a36.62,36.62,0,0,0,6,6.5,43.33,43.33,0,0,0,13.83,8,33.09,33.09,0,0,0,7.17,1.5c1.31.19,4,.44,5,.5a11.67,11.67,0,0,0,4.5-.83c1.75-.67,4.27-2.08,6.17-3a31.24,31.24,0,0,0,6.5-4.5c2.14-1.92,10.18-8.67,10.66-8.67a3.51,3.51,0,0,0,1.84-.83c.89-.61,4.71-5.25,5.33-5.84s4.33-3.91,4.67-4.5a2.89,2.89,0,0,0,.16-1.66,7.73,7.73,0,0,0-.5-2,3.81,3.81,0,0,0-1-1.17c-.46-.44-1.1-.67-2-1.33a4.48,4.48,0,0,0-2.33-.84c-.63-.08-5.52-.18-7.66-.16s-7.15.21-8.34.33-3.25.67-4,.83a7.83,7.83,0,0,0-1.66.67s0,1.63,0,2.5-.94,2.21-2.17,3.17a24.25,24.25,0,0,1-4.17,2.33c-.94.44-3.14,1.42-4.16,1.83s-1.11.38-5,1.34a20.61,20.61,0,0,1-8.16.67c-1.73-.28-2-.73-4.83-2a37,37,0,0,1-8.51-5.66,47.45,47.45,0,0,1-3-3.83,35.87,35.87,0,0,1-3.33-5,25.28,25.28,0,0,1-2-6.34c-.19-1.31-.14-3.62-.17-4s.65-.54,1-.83a3.59,3.59,0,0,1,1.83-.5c.89-.11,5.54.1,7,0s4.37-.48,8.16-1.17,9.53-1.94,11.51-2.5a49.41,49.41,0,0,0,6.66-2.66c1.56-.77,4.9-2.23,6.17-3a26.25,26.25,0,0,0,4.16-4c.67-.78,2.8-2.8,3.67-4a19.53,19.53,0,0,0,1.83-3.84,11.7,11.7,0,0,0,1.17-3.66,39.52,39.52,0,0,0,0-6.17,35.16,35.16,0,0,0-1-6.33c-.44-1.71-1.25-4.78-1.5-5.84a12.6,12.6,0,0,0-2.16-5A9.53,9.53,0,0,0,495.59,49a28.64,28.64,0,0,0-4.33-2,44.15,44.15,0,0,0-4.67-1.17c-1.86-.43-8-2-9.17-2s-3.66.17-3.66.17-2.25,0-3.67.17a11.55,11.55,0,0,0-3.67,1.16c-1.06.5-5.29,2.46-6.33,3.17a41.21,41.21,0,0,0-4.33,3.5c-1,1-3.65,4.08-4.34,4.83a39.74,39.74,0,0,0-3,3.67c-1.12,1.58-1.92,2.87-2.5,3.67-2.37,4.18,12.52,11.54,14.27,9.94,1.29-1.1,1.29-1.13,2.95-2.62,3.17-2.23,8.13-4.33,14.8-6.75a15.6,15.6,0,0,1,3-.69c1.27-.16,7.51-.73,7.88-.29a2.46,2.46,0,0,1,.65,1.71,11,11,0,0,1-1.5,3.93,25.4,25.4,0,0,1-3.87,3.86c-1.5,1.35-4,3.63-10.87,6.94a61.59,61.59,0,0,1-8.32,2.56A47.29,47.29,0,0,1,454,84.2c0-.21,0,.41,0-.7A11.84,11.84,0,0,1,456.2,78,30.46,30.46,0,0,1,460,74.25c7.14-12.06-11.63-14.89-14.32-9.78-1.11,2.16-3,6.26-3.95,8a52,52,0,0,0-2.84,6.5c-.56,1.52-1.27,4.21-1.66,5.33a17.57,17.57,0,0,1-.67,2.34c-.29.35.16.06-.5.33s-6.84-.33-6.84-.33" transform="translate(-7.92 -14.5)"/><path class="cls-1" d="M429.25,86.65s7.06,10.63,7.33,11.34,1,4.77,1.34,6.33a64.71,64.71,0,0,0,1.83,6.5c.73,2.19,2.19,5.08,2.84,6.67a70.55,70.55,0,0,0,3.5,7.5c1,1.64,4.33,6.52,5.33,7.83a36.62,36.62,0,0,0,6,6.5,43.33,43.33,0,0,0,13.83,8,33.09,33.09,0,0,0,7.17,1.5c1.31.19,4,.44,5,.5a11.67,11.67,0,0,0,4.5-.83c1.75-.67,4.27-2.08,6.17-3a31.24,31.24,0,0,0,6.5-4.5c2.14-1.92,10.18-8.67,10.66-8.67a3.51,3.51,0,0,0,1.84-.83c.89-.61,4.71-5.25,5.33-5.84s4.33-3.91,4.67-4.5a2.89,2.89,0,0,0,.16-1.66,7.73,7.73,0,0,0-.5-2,3.81,3.81,0,0,0-1-1.17c-.46-.44-1.1-.67-2-1.33a4.48,4.48,0,0,0-2.33-.84c-.63-.08-5.52-.18-7.66-.16s-7.15.21-8.34.33-3.25.67-4,.83a7.83,7.83,0,0,0-1.66.67s0,1.63,0,2.5-.94,2.21-2.17,3.17a24.25,24.25,0,0,1-4.17,2.33c-.94.44-3.14,1.42-4.16,1.83s-1.11.38-5,1.34a20.61,20.61,0,0,1-8.16.67c-1.73-.28-2-.73-4.83-2a37,37,0,0,1-8.51-5.66,47.45,47.45,0,0,1-3-3.83,35.87,35.87,0,0,1-3.33-5,25.28,25.28,0,0,1-2-6.34c-.19-1.31-.14-3.62-.17-4s.65-.54,1-.83a3.59,3.59,0,0,1,1.83-.5c.89-.11,5.54.1,7,0s4.37-.48,8.16-1.17,9.53-1.94,11.51-2.5a49.41,49.41,0,0,0,6.66-2.66c1.56-.77,4.9-2.23,6.17-3a26.25,26.25,0,0,0,4.16-4c.67-.78,2.8-2.8,3.67-4a19.53,19.53,0,0,0,1.83-3.84,11.7,11.7,0,0,0,1.17-3.66,39.52,39.52,0,0,0,0-6.17,35.16,35.16,0,0,0-1-6.33c-.44-1.71-1.25-4.78-1.5-5.84a12.6,12.6,0,0,0-2.16-5A9.53,9.53,0,0,0,495.59,49a28.64,28.64,0,0,0-4.33-2,44.15,44.15,0,0,0-4.67-1.17c-1.86-.43-8-2-9.17-2s-3.66.17-3.66.17-2.25,0-3.67.17a11.55,11.55,0,0,0-3.67,1.16c-1.06.5-5.29,2.46-6.33,3.17a41.21,41.21,0,0,0-4.33,3.5c-1,1-3.65,4.08-4.34,4.83a39.74,39.74,0,0,0-3,3.67c-1.12,1.58-1.92,2.87-2.5,3.67-2.37,4.18,12.52,11.54,14.27,9.94,1.29-1.1,1.29-1.13,2.95-2.62,3.17-2.23,8.13-4.33,14.8-6.75a15.6,15.6,0,0,1,3-.69c1.27-.16,7.51-.73,7.88-.29a2.46,2.46,0,0,1,.65,1.71,11,11,0,0,1-1.5,3.93,25.4,25.4,0,0,1-3.87,3.86c-1.5,1.35-4,3.63-10.87,6.94a61.59,61.59,0,0,1-8.32,2.56A47.29,47.29,0,0,1,454,84.2c0-.21,0,.41,0-.7A11.84,11.84,0,0,1,456.2,78,30.46,30.46,0,0,1,460,74.25c7.14-12.06-11.63-14.89-14.32-9.78-1.11,2.16-3,6.26-3.95,8a52,52,0,0,0-2.84,6.5c-.56,1.52-1.27,4.21-1.66,5.33a17.57,17.57,0,0,1-.67,2.34c-.29.35.16.06-.5.33s-6.84-.33-6.84-.33h0Z" transform="translate(-7.92 -14.5)"/><path class="cls-1" d="M87.55,131.67c-.22-3-.38.73-.13-4.6s.49-7.1,2.2-12,1.19-3.3,3.37-7.37S103.39,97,103.86,96.59s1.35-.16,1-.25,8.95,4.47,11.27,7.73,7.11,13.23,7.88,15.56a12.22,12.22,0,0,0,2.59,4.15l.13,6.73-1,11-2.2,10.74a33.58,33.58,0,0,1-5.18,6.08c-2.72,2.33-7.77,4.53-8.8,5.31s-1,.52-2.2,0c-2.72-1-14.37-16.57-16.31-20.45s-2.85-6.09-2.85-6.09,11.83-3.83,11.91-2.52.75,4.3,1,4.47c.83.85,3.34-3,3.75-3.89s3.41-6.46,3.89-10.48a13.43,13.43,0,0,0-.52-6.73,17.84,17.84,0,0,0-3.87-6.56c-1.06-1-3.29-1.54-3.47-1.26s-.74,23.46-.82,24.26S88.2,137.1,88.2,137.1s-.42-2.42-.64-5.43" transform="translate(-7.92 -14.5)"/><path class="cls-1" d="M87.55,131.67c-.22-3-.38.73-.13-4.6s.49-7.1,2.2-12,1.19-3.3,3.37-7.37S103.39,97,103.86,96.59s1.35-.16,1-.25,8.95,4.47,11.27,7.73,7.11,13.23,7.88,15.56a12.22,12.22,0,0,0,2.59,4.15l.13,6.73-1,11-2.2,10.74a33.58,33.58,0,0,1-5.18,6.08c-2.72,2.33-7.77,4.53-8.8,5.31s-1,.52-2.2,0c-2.72-1-14.37-16.57-16.31-20.45s-2.85-6.09-2.85-6.09,11.83-3.83,11.91-2.52.75,4.3,1,4.47c.83.85,3.34-3,3.75-3.89s3.41-6.46,3.89-10.48a13.43,13.43,0,0,0-.52-6.73,17.84,17.84,0,0,0-3.87-6.56c-1.06-1-3.29-1.54-3.47-1.26s-.74,23.46-.82,24.26S88.2,137.1,88.2,137.1s-.42-2.42-.64-5.43Z" transform="translate(-7.92 -14.5)"/><path class="cls-1" d="M118.92,124.45s1.25-1,5.62-4.88c4.21-4.25,19.79-25.58,27.13-32,1.25-.92,1.5-.83,2.25-1.5s.33-1.08-.13-1.75-8.54-6.87-8.54-6.87l2.54-.51c1.88-.37,1.29-.29,5.5-.87,6.54-.5,17,2.83,21.25,4.5s20.63,14.5,27.25,29.13c2.63,6.29,5,10.37,4.88,12.37s-5.67,15.25-8.25,19.5a110.81,110.81,0,0,1-3.13,16.62c-1.29,4.3-5,12.88-5.62,13.38s-4.34,9.33-5.5,11.5-7.17,7.42-12.5,8.88a76.24,76.24,0,0,1-12.38,2.62c-3.37.33-11,.16-14.87-3.5s-6-5.58-7.13-7.5a43.81,43.81,0,0,0-4.12-5.75c-1.42-1.67-12.75-16.83-14.5-19.62a33.29,33.29,0,0,0-3.4-4.89c-2.77-3.66,22-3.33,22-.7a47.55,47.55,0,0,0,.92,9.34c.67,3.12,1.5,6,2.25,6.87s1.92,1.75,4.63,2,5.37-.33,9.62-1.75c6.17-1.42,9.75-4.08,13.25-8.88s5.84-7.45,7.5-12a98.82,98.82,0,0,0,4.25-20.12c.83-7.42-2.33-15.92-3.12-18.38s-2-5.45-3.26-6.62a6.81,6.81,0,0,1-2.54-4.25,5.66,5.66,0,0,1-.7,2.62c-.38,2.21-5.63,3-8.38,4.88s-11.33,8.5-15.25,14.87-4.67,7.63-6.75,14-2.47,17.25-2.47,17.25l-22.1.67,3.82-28.67" transform="translate(-7.92 -14.5)"/><path class="cls-1" d="M118.92,124.45s1.25-1,5.62-4.88c4.21-4.25,19.79-25.58,27.13-32,1.25-.92,1.5-.83,2.25-1.5s.33-1.08-.13-1.75-8.54-6.87-8.54-6.87l2.54-.51c1.88-.37,1.29-.29,5.5-.87,6.54-.5,17,2.83,21.25,4.5s20.63,14.5,27.25,29.13c2.63,6.29,5,10.37,4.88,12.37s-5.67,15.25-8.25,19.5a110.81,110.81,0,0,1-3.13,16.62c-1.29,4.3-5,12.88-5.62,13.38s-4.34,9.33-5.5,11.5-7.17,7.42-12.5,8.88a76.24,76.24,0,0,1-12.38,2.62c-3.37.33-11,.16-14.87-3.5s-6-5.58-7.13-7.5a43.81,43.81,0,0,0-4.12-5.75c-1.42-1.67-12.75-16.83-14.5-19.62a33.29,33.29,0,0,0-3.4-4.89c-2.77-3.66,22-3.33,22-.7a47.55,47.55,0,0,0,.92,9.34c.67,3.12,1.5,6,2.25,6.87s1.92,1.75,4.63,2,5.37-.33,9.62-1.75c6.17-1.42,9.75-4.08,13.25-8.88s5.84-7.45,7.5-12a98.82,98.82,0,0,0,4.25-20.12c.83-7.42-2.33-15.92-3.12-18.38s-2-5.45-3.26-6.62a6.81,6.81,0,0,1-2.54-4.25,5.66,5.66,0,0,1-.7,2.62c-.38,2.21-5.63,3-8.38,4.88s-11.33,8.5-15.25,14.87-4.67,7.63-6.75,14-2.47,17.25-2.47,17.25l-22.1.67,3.82-28.67Z" transform="translate(-7.92 -14.5)"/><path class="cls-1" d="M275.45,122.41l.69.57s.38.72.46-.11.09-6.7.69-9,2.24-5.83,2.79-7.26S283,97.06,283.42,96s2-5.75,4-8a15.93,15.93,0,0,1,5.38-4.16,40.68,40.68,0,0,0,5.29-2.51c.7-.54,1.36-1.58,2.33-2.33a5.74,5.74,0,0,1,3-.67l.06,3.1a7.42,7.42,0,0,0,.6,2.38c.42.59,2.81,2.16,3.41,2.79s1.88,2.23,3.34,3.79c1.76,1.39,7.58,3.72,7.92,4.13s.27.68.57,1.38,2.58,5.12,3.22,8,1.64,12.83,1.84,16.54c.26,2.58.73,12.1.57,16.07a39.39,39.39,0,0,1-1.38,7.93c-.13,2.63-.53,7.34-.8,8.84s-3.16,8.76-3.79,10.22-2.91,7.35-5.63,9.41c-1.7,1.42-3.91,2.62-9.41,2.07-4-.45-5.42-.52-9.18-2.35-2.06-1.05-5.65-2.48-8-5.92s-7.49-14.61-8.16-17-2-8.94-2.52-11.26-1.95-.57-1.95-.57l-.46-7s14.35-2.74,14,.56-1,7.31-1.14,9.09-.2,8.24-.14,9.77a8.75,8.75,0,0,0,2.09,4.7,9.39,9.39,0,0,0,3.79,1.15,15.5,15.5,0,0,0,5.17-1.49c1.39-.69,4-2.19,8.61-9.07s7.63-14,8.38-17.11a44.92,44.92,0,0,0,0-14.36,84.4,84.4,0,0,0-3.21-9.3c-2.67-4.37-4.36-4.73-5.52-5.16s-.78-.71-2.15-.19-4.28,3.4-4.28,3.4L293.71,111l-3.21,9.76s-2.22,8.24-2.9,10.47-14-.48-14-.48l-.23-7.92,2.07-.46" transform="translate(-7.92 -14.5)"/><path class="cls-1" d="M275.45,122.41l.69.57s.38.72.46-.11.09-6.7.69-9,2.24-5.83,2.79-7.26S283,97.06,283.42,96s2-5.75,4-8a15.93,15.93,0,0,1,5.38-4.16,40.68,40.68,0,0,0,5.29-2.51c.7-.54,1.36-1.58,2.33-2.33a5.74,5.74,0,0,1,3-.67l.06,3.1a7.42,7.42,0,0,0,.6,2.38c.42.59,2.81,2.16,3.41,2.79s1.88,2.23,3.34,3.79c1.76,1.39,7.58,3.72,7.92,4.13s.27.68.57,1.38,2.58,5.12,3.22,8,1.64,12.83,1.84,16.54c.26,2.58.73,12.1.57,16.07a39.39,39.39,0,0,1-1.38,7.93c-.13,2.63-.53,7.34-.8,8.84s-3.16,8.76-3.79,10.22-2.91,7.35-5.63,9.41c-1.7,1.42-3.91,2.62-9.41,2.07-4-.45-5.42-.52-9.18-2.35-2.06-1.05-5.65-2.48-8-5.92s-7.49-14.61-8.16-17-2-8.94-2.52-11.26-1.95-.57-1.95-.57l-.46-7s14.35-2.74,14,.56-1,7.31-1.14,9.09-.2,8.24-.14,9.77a8.75,8.75,0,0,0,2.09,4.7,9.39,9.39,0,0,0,3.79,1.15,15.5,15.5,0,0,0,5.17-1.49c1.39-.69,4-2.19,8.61-9.07s7.63-14,8.38-17.11a44.92,44.92,0,0,0,0-14.36,84.4,84.4,0,0,0-3.21-9.3c-2.67-4.37-4.36-4.73-5.52-5.16s-.78-.71-2.15-.19-4.28,3.4-4.28,3.4L293.71,111l-3.21,9.76s-2.22,8.24-2.9,10.47-14-.48-14-.48l-.23-7.92,2.07-.46Z" transform="translate(-7.92 -14.5)"/></svg>